<svg width="141" height="43" viewBox="0 0 141 43" fill="none" xmlns="http://www.w3.org/2000/svg">
<rect width="140.09" height="42.028" transform="translate(0.166626)" fill="#F0F0F0"/>
<path d="M20.882 20.4609L10.2357 31.5911C10.5814 32.7664 11.6875 33.6651 13.001 33.6651C13.5541 33.6651 14.038 33.5268 14.4528 33.2503L26.4817 26.4063L20.882 20.4609Z" fill="#EA4335"/>
<path d="M31.6666 18.5252L26.4817 15.5526L20.6747 20.6683L26.5508 26.4063L31.7357 23.5027C32.6344 23.0188 33.2566 22.051 33.2566 21.014C33.1875 19.977 32.5653 19.0092 31.6666 18.5252Z" fill="#FBBC04"/>
<path d="M10.2358 10.4368C10.1666 10.6442 10.1666 10.9208 10.1666 11.1973V30.8998C10.1666 31.1764 10.1666 31.3837 10.2358 31.6603L21.2968 20.8066L10.2358 10.4368Z" fill="#4285F4"/>
<path d="M20.9512 21.014L26.4817 15.5526L14.5219 8.77767C14.1071 8.50115 13.5541 8.36288 13.001 8.36288C11.6875 8.36288 10.5123 9.2616 10.2357 10.4368L20.9512 21.014Z" fill="#34A853"/>
<path d="M49.1355 12.4902L50.0828 12.7295C49.8842 13.5075 49.5262 14.1016 49.0086 14.5117C48.4943 14.9186 47.8644 15.1221 47.1189 15.1221C46.3474 15.1221 45.7192 14.9658 45.2342 14.6533C44.7524 14.3376 44.3846 13.8818 44.1306 13.2861C43.88 12.6904 43.7547 12.0508 43.7547 11.3672C43.7547 10.6217 43.8963 9.97233 44.1795 9.41895C44.4659 8.8623 44.8712 8.44076 45.3953 8.1543C45.9226 7.86458 46.5021 7.71973 47.1336 7.71973C47.8497 7.71973 48.4519 7.90202 48.9402 8.2666C49.4285 8.63118 49.7687 9.14388 49.9607 9.80469L49.0281 10.0244C48.8621 9.50358 48.6212 9.12435 48.3055 8.88672C47.9897 8.64909 47.5926 8.53027 47.114 8.53027C46.5639 8.53027 46.1033 8.66211 45.7322 8.92578C45.3644 9.18945 45.1056 9.54427 44.9558 9.99023C44.8061 10.4329 44.7312 10.8903 44.7312 11.3623C44.7312 11.971 44.8191 12.5033 44.9949 12.959C45.1739 13.4115 45.4506 13.75 45.825 13.9746C46.1993 14.1992 46.6046 14.3115 47.0408 14.3115C47.5714 14.3115 48.0206 14.1585 48.3885 13.8525C48.7563 13.5465 49.0053 13.0924 49.1355 12.4902ZM50.8152 12.4072C50.8152 11.4469 51.0821 10.7357 51.616 10.2734C52.062 9.88932 52.6056 9.69727 53.2469 9.69727C53.9597 9.69727 54.5424 9.93164 54.9949 10.4004C55.4474 10.8659 55.6736 11.5104 55.6736 12.334C55.6736 13.0013 55.5727 13.527 55.3709 13.9111C55.1723 14.292 54.881 14.5882 54.4969 14.7998C54.116 15.0114 53.6993 15.1172 53.2469 15.1172C52.5209 15.1172 51.9334 14.8844 51.4842 14.4189C51.0382 13.9535 50.8152 13.2829 50.8152 12.4072ZM51.7185 12.4072C51.7185 13.0713 51.8634 13.5693 52.1531 13.9014C52.4428 14.2301 52.8074 14.3945 53.2469 14.3945C53.6831 14.3945 54.046 14.2285 54.3357 13.8965C54.6254 13.5645 54.7703 13.0583 54.7703 12.3779C54.7703 11.7367 54.6238 11.2516 54.3308 10.9229C54.0411 10.5908 53.6798 10.4248 53.2469 10.4248C52.8074 10.4248 52.4428 10.5892 52.1531 10.918C51.8634 11.2467 51.7185 11.7432 51.7185 12.4072ZM56.7088 15V9.81445H57.4949V10.542C57.6577 10.2881 57.8741 10.0846 58.1443 9.93164C58.4145 9.77539 58.7221 9.69727 59.0672 9.69727C59.4513 9.69727 59.7654 9.77702 60.0096 9.93652C60.2569 10.096 60.4311 10.319 60.532 10.6055C60.9422 10 61.476 9.69727 62.1336 9.69727C62.6479 9.69727 63.0434 9.84049 63.3201 10.127C63.5968 10.4102 63.7351 10.848 63.7351 11.4404V15H62.8611V11.7334C62.8611 11.3818 62.8318 11.1296 62.7732 10.9766C62.7179 10.8203 62.6153 10.695 62.4656 10.6006C62.3159 10.5062 62.1401 10.459 61.9383 10.459C61.5737 10.459 61.2709 10.5811 61.0301 10.8252C60.7892 11.0661 60.6687 11.4535 60.6687 11.9873V15H59.7898V11.6309C59.7898 11.2402 59.7182 10.9473 59.575 10.752C59.4318 10.5566 59.1974 10.459 58.8719 10.459C58.6245 10.459 58.395 10.5241 58.1834 10.6543C57.975 10.7845 57.8237 10.9749 57.7293 11.2256C57.6349 11.4762 57.5877 11.8376 57.5877 12.3096V15H56.7088ZM65.0437 8.85254V7.8418H65.9226V8.85254H65.0437ZM65.0437 15V9.81445H65.9226V15H65.0437ZM67.2654 15V9.81445H68.0564V10.5518C68.4373 9.9821 68.9874 9.69727 69.7068 9.69727C70.0193 9.69727 70.3058 9.75423 70.5662 9.86816C70.8299 9.97884 71.0268 10.1253 71.157 10.3076C71.2872 10.4899 71.3784 10.7064 71.4305 10.957C71.463 11.1198 71.4793 11.4046 71.4793 11.8115V15H70.6004V11.8457C70.6004 11.4876 70.5662 11.2207 70.4978 11.0449C70.4295 10.8659 70.3074 10.7243 70.1316 10.6201C69.9591 10.5127 69.7556 10.459 69.5213 10.459C69.1469 10.459 68.823 10.5778 68.5496 10.8154C68.2794 11.0531 68.1443 11.5039 68.1443 12.168V15H67.2654ZM72.6707 15.4297L73.5252 15.5566C73.561 15.8203 73.6603 16.0124 73.823 16.1328C74.0411 16.2956 74.339 16.377 74.7166 16.377C75.1235 16.377 75.4376 16.2956 75.659 16.1328C75.8803 15.9701 76.0301 15.7422 76.1082 15.4492C76.1538 15.2702 76.1749 14.8942 76.1717 14.3213C75.7875 14.7738 75.309 15 74.7361 15C74.0232 15 73.4715 14.7428 73.0808 14.2285C72.6902 13.7142 72.4949 13.0973 72.4949 12.3779C72.4949 11.8831 72.5844 11.4274 72.7635 11.0107C72.9425 10.5908 73.2013 10.2669 73.5398 10.0391C73.8816 9.8112 74.282 9.69727 74.741 9.69727C75.353 9.69727 75.8575 9.94466 76.2547 10.4395V9.81445H77.0652V14.2969C77.0652 15.1042 76.9822 15.6755 76.8162 16.0107C76.6534 16.3493 76.393 16.6162 76.0349 16.8115C75.6801 17.0068 75.2423 17.1045 74.7215 17.1045C74.103 17.1045 73.6033 16.9645 73.2224 16.6846C72.8416 16.4079 72.6577 15.9896 72.6707 15.4297ZM73.3982 12.3145C73.3982 12.9948 73.5333 13.4912 73.8035 13.8037C74.0737 14.1162 74.4122 14.2725 74.8191 14.2725C75.2228 14.2725 75.5613 14.1178 75.8347 13.8086C76.1082 13.4961 76.2449 13.0078 76.2449 12.3438C76.2449 11.709 76.1033 11.2305 75.8201 10.9082C75.5402 10.5859 75.2016 10.4248 74.8045 10.4248C74.4138 10.4248 74.0818 10.5843 73.8084 10.9033C73.5349 11.2191 73.3982 11.6895 73.3982 12.3145ZM80.9715 12.7002L81.865 12.6221C81.9073 12.9801 82.005 13.2747 82.158 13.5059C82.3142 13.7337 82.5551 13.9193 82.8806 14.0625C83.2062 14.2025 83.5724 14.2725 83.9793 14.2725C84.3406 14.2725 84.6596 14.2188 84.9363 14.1113C85.213 14.0039 85.4181 13.8574 85.5515 13.6719C85.6883 13.4831 85.7566 13.278 85.7566 13.0566C85.7566 12.832 85.6915 12.6367 85.5613 12.4707C85.4311 12.3014 85.2163 12.1598 84.9168 12.0459C84.7247 11.971 84.2999 11.8555 83.6424 11.6992C82.9848 11.5397 82.5242 11.39 82.2605 11.25C81.9187 11.071 81.6632 10.8496 81.4939 10.5859C81.3279 10.319 81.2449 10.0212 81.2449 9.69238C81.2449 9.33105 81.3474 8.99414 81.5525 8.68164C81.7576 8.36589 82.0571 8.12663 82.451 7.96387C82.8448 7.80111 83.2827 7.71973 83.7644 7.71973C84.295 7.71973 84.7622 7.80599 85.1658 7.97852C85.5727 8.14779 85.8852 8.39844 86.1033 8.73047C86.3214 9.0625 86.4386 9.43848 86.4549 9.8584L85.5467 9.92676C85.4978 9.47428 85.3318 9.13249 85.0486 8.90137C84.7687 8.67025 84.3536 8.55469 83.8035 8.55469C83.2306 8.55469 82.8123 8.66048 82.5486 8.87207C82.2882 9.0804 82.158 9.33268 82.158 9.62891C82.158 9.88607 82.2508 10.0977 82.4363 10.2637C82.6186 10.4297 83.0939 10.6006 83.8621 10.7764C84.6336 10.9489 85.1625 11.1003 85.449 11.2305C85.8657 11.4225 86.1733 11.6667 86.3719 11.9629C86.5704 12.2559 86.6697 12.5944 86.6697 12.9785C86.6697 13.3594 86.5607 13.7191 86.3426 14.0576C86.1245 14.3929 85.8103 14.6549 85.4002 14.8438C84.9933 15.0293 84.5343 15.1221 84.0232 15.1221C83.3754 15.1221 82.8318 15.0277 82.3924 14.8389C81.9562 14.6501 81.6127 14.3669 81.3621 13.9893C81.1147 13.6084 80.9845 13.1787 80.9715 12.7002ZM87.5242 12.4072C87.5242 11.4469 87.7911 10.7357 88.325 10.2734C88.7709 9.88932 89.3146 9.69727 89.9558 9.69727C90.6687 9.69727 91.2514 9.93164 91.7039 10.4004C92.1564 10.8659 92.3826 11.5104 92.3826 12.334C92.3826 13.0013 92.2817 13.527 92.0799 13.9111C91.8813 14.292 91.59 14.5882 91.2058 14.7998C90.825 15.0114 90.4083 15.1172 89.9558 15.1172C89.2299 15.1172 88.6424 14.8844 88.1931 14.4189C87.7472 13.9535 87.5242 13.2829 87.5242 12.4072ZM88.4275 12.4072C88.4275 13.0713 88.5724 13.5693 88.8621 13.9014C89.1518 14.2301 89.5164 14.3945 89.9558 14.3945C90.392 14.3945 90.755 14.2285 91.0447 13.8965C91.3344 13.5645 91.4793 13.0583 91.4793 12.3779C91.4793 11.7367 91.3328 11.2516 91.0398 10.9229C90.7501 10.5908 90.3888 10.4248 89.9558 10.4248C89.5164 10.4248 89.1518 10.5892 88.8621 10.918C88.5724 11.2467 88.4275 11.7432 88.4275 12.4072ZM93.0906 12.4072C93.0906 11.4469 93.3575 10.7357 93.8914 10.2734C94.3374 9.88932 94.881 9.69727 95.5222 9.69727C96.2351 9.69727 96.8178 9.93164 97.2703 10.4004C97.7228 10.8659 97.949 11.5104 97.949 12.334C97.949 13.0013 97.8481 13.527 97.6463 13.9111C97.4477 14.292 97.1564 14.5882 96.7722 14.7998C96.3914 15.0114 95.9747 15.1172 95.5222 15.1172C94.7963 15.1172 94.2088 14.8844 93.7596 14.4189C93.3136 13.9535 93.0906 13.2829 93.0906 12.4072ZM93.9939 12.4072C93.9939 13.0713 94.1388 13.5693 94.4285 13.9014C94.7182 14.2301 95.0828 14.3945 95.5222 14.3945C95.9584 14.3945 96.3214 14.2285 96.6111 13.8965C96.9008 13.5645 97.0457 13.0583 97.0457 12.3779C97.0457 11.7367 96.8992 11.2516 96.6062 10.9229C96.3165 10.5908 95.9552 10.4248 95.5222 10.4248C95.0828 10.4248 94.7182 10.5892 94.4285 10.918C94.1388 11.2467 93.9939 11.7432 93.9939 12.4072ZM98.9842 15V9.81445H99.7752V10.5518C100.156 9.9821 100.706 9.69727 101.426 9.69727C101.738 9.69727 102.025 9.75423 102.285 9.86816C102.549 9.97884 102.746 10.1253 102.876 10.3076C103.006 10.4899 103.097 10.7064 103.149 10.957C103.182 11.1198 103.198 11.4046 103.198 11.8115V15H102.319V11.8457C102.319 11.4876 102.285 11.2207 102.217 11.0449C102.148 10.8659 102.026 10.7243 101.85 10.6201C101.678 10.5127 101.474 10.459 101.24 10.459C100.866 10.459 100.542 10.5778 100.268 10.8154C99.9982 11.0531 99.8631 11.5039 99.8631 12.168V15H98.9842ZM107.007 12.4072C107.007 11.4469 107.274 10.7357 107.807 10.2734C108.253 9.88932 108.797 9.69727 109.438 9.69727C110.151 9.69727 110.734 9.93164 111.186 10.4004C111.639 10.8659 111.865 11.5104 111.865 12.334C111.865 13.0013 111.764 13.527 111.562 13.9111C111.364 14.292 111.072 14.5882 110.688 14.7998C110.307 15.0114 109.891 15.1172 109.438 15.1172C108.712 15.1172 108.125 14.8844 107.676 14.4189C107.23 13.9535 107.007 13.2829 107.007 12.4072ZM107.91 12.4072C107.91 13.0713 108.055 13.5693 108.345 13.9014C108.634 14.2301 108.999 14.3945 109.438 14.3945C109.874 14.3945 110.237 14.2285 110.527 13.8965C110.817 13.5645 110.962 13.0583 110.962 12.3779C110.962 11.7367 110.815 11.2516 110.522 10.9229C110.233 10.5908 109.871 10.4248 109.438 10.4248C108.999 10.4248 108.634 10.5892 108.345 10.918C108.055 11.2467 107.91 11.7432 107.91 12.4072ZM112.9 15V9.81445H113.691V10.5518C114.072 9.9821 114.622 9.69727 115.342 9.69727C115.654 9.69727 115.941 9.75423 116.201 9.86816C116.465 9.97884 116.662 10.1253 116.792 10.3076C116.922 10.4899 117.013 10.7064 117.065 10.957C117.098 11.1198 117.114 11.4046 117.114 11.8115V15H116.235V11.8457C116.235 11.4876 116.201 11.2207 116.133 11.0449C116.064 10.8659 115.942 10.7243 115.766 10.6201C115.594 10.5127 115.39 10.459 115.156 10.459C114.782 10.459 114.458 10.5778 114.184 10.8154C113.914 11.0531 113.779 11.5039 113.779 12.168V15H112.9Z" fill="#878787"/>
<path d="M70.3506 23.705C67.9986 23.705 66.0816 25.493 66.0816 27.958C66.0816 30.407 67.9986 32.211 70.3506 32.211C72.7026 32.211 74.6196 30.407 74.6196 27.958C74.6196 25.493 72.7026 23.705 70.3506 23.705ZM70.3506 30.536C69.0616 30.536 67.9496 29.473 67.9496 27.958C67.9496 26.427 69.0616 25.38 70.3506 25.38C71.6396 25.38 72.7506 26.427 72.7506 27.958C72.7506 29.472 71.6396 30.536 70.3506 30.536ZM61.0366 23.705C58.6846 23.705 56.7676 25.493 56.7676 27.958C56.7676 30.407 58.6846 32.211 61.0366 32.211C63.3886 32.211 65.3056 30.407 65.3056 27.958C65.3066 25.493 63.3886 23.705 61.0366 23.705ZM61.0366 30.536C59.7476 30.536 58.6366 29.473 58.6366 27.958C58.6366 26.427 59.7486 25.38 61.0366 25.38C62.3256 25.38 63.4366 26.427 63.4366 27.958C63.4376 29.472 62.3256 30.536 61.0366 30.536ZM49.9586 25.01V26.814H54.2766C54.1476 27.829 53.8096 28.57 53.2936 29.086C52.6656 29.714 51.6826 30.407 49.9586 30.407C47.3006 30.407 45.2226 28.264 45.2226 25.606C45.2226 22.948 47.3006 20.805 49.9586 20.805C51.3926 20.805 52.4396 21.369 53.2126 22.094L54.4856 20.821C53.4066 19.79 51.9726 19 49.9586 19C46.3176 19 43.2566 21.964 43.2566 25.605C43.2566 29.246 46.3176 32.21 49.9586 32.21C51.9236 32.21 53.4066 31.566 54.5666 30.357C55.7586 29.165 56.1296 27.489 56.1296 26.136C56.1296 25.717 56.0976 25.33 56.0326 25.008H49.9586V25.01ZM95.2666 26.411C94.9126 25.46 93.8326 23.704 91.6256 23.704C89.4346 23.704 87.6146 25.428 87.6146 27.957C87.6146 30.341 89.4186 32.21 91.8356 32.21C93.7846 32.21 94.9126 31.018 95.3796 30.325L93.9296 29.358C93.4466 30.067 92.7856 30.534 91.8356 30.534C90.8846 30.534 90.2086 30.099 89.7736 29.245L95.4606 26.893L95.2666 26.411ZM89.4666 27.829C89.4186 26.186 90.7396 25.348 91.6896 25.348C92.4306 25.348 93.0586 25.718 93.2686 26.25L89.4666 27.829ZM84.8426 31.953H86.7116V19.452H84.8426V31.953ZM81.7816 24.655H81.7176C81.2986 24.156 80.4936 23.704 79.4786 23.704C77.3516 23.704 75.4026 25.573 75.4026 27.973C75.4026 30.357 77.3516 32.21 79.4786 32.21C80.4936 32.21 81.2986 31.759 81.7176 31.243H81.7816V31.855C81.7816 33.482 80.9116 34.352 79.5096 34.352C78.3656 34.352 77.6566 33.53 77.3666 32.838L75.7396 33.515C76.2066 34.643 77.4476 36.028 79.5096 36.028C81.7006 36.028 83.5536 34.739 83.5536 31.598V23.962H81.7816V24.655ZM79.6396 30.536C78.3506 30.536 77.2716 29.457 77.2716 27.974C77.2716 26.476 78.3506 25.38 79.6396 25.38C80.9126 25.38 81.9106 26.475 81.9106 27.974C81.9106 29.456 80.9126 30.536 79.6396 30.536ZM104.021 19.452H99.5496V31.953H101.415V27.217H104.02C106.088 27.217 108.121 25.72 108.121 23.335C108.121 20.95 106.089 19.452 104.021 19.452ZM104.069 25.477H101.415V21.192H104.069C105.464 21.192 106.256 22.347 106.256 23.335C106.256 24.303 105.464 25.477 104.069 25.477ZM115.601 23.682C114.25 23.682 112.851 24.277 112.272 25.596L113.929 26.288C114.283 25.596 114.942 25.371 115.634 25.371C116.599 25.371 117.58 25.95 117.596 26.979V27.108C117.258 26.915 116.534 26.625 115.65 26.625C113.865 26.625 112.047 27.606 112.047 29.44C112.047 31.113 113.511 32.19 115.151 32.19C116.406 32.19 117.097 31.627 117.531 30.968H117.595V31.933H119.396V27.14C119.396 24.92 117.74 23.682 115.601 23.682ZM115.375 30.533C114.764 30.533 113.911 30.227 113.911 29.472C113.911 28.507 114.973 28.137 115.889 28.137C116.709 28.137 117.095 28.314 117.594 28.555C117.45 29.713 116.453 30.533 115.375 30.533ZM125.958 23.955L123.819 29.375H123.755L121.536 23.955H119.526L122.855 31.53L120.957 35.744H122.903L128.034 23.955H125.958ZM109.151 31.953H111.017V19.452H109.151V31.953Z" fill="#878787"/>
</svg>
