<svg width="129" height="42" viewBox="0 0 129 42" fill="none" xmlns="http://www.w3.org/2000/svg">
<rect x="1.24329" y="0.5" width="126.423" height="40.6202" rx="8.5" fill="#FC8574"/>
<path d="M27.1309 21.5301C27.1421 20.6622 27.3727 19.8111 27.8011 19.0562C28.2296 18.3013 28.8421 17.667 29.5815 17.2124C29.1118 16.5415 28.492 15.9894 27.7716 15.5999C27.0511 15.2104 26.2497 14.9943 25.4311 14.9687C23.6849 14.7854 21.992 16.0136 21.1021 16.0136C20.1951 16.0136 18.825 14.9869 17.3497 15.0172C16.3954 15.048 15.4654 15.3255 14.6502 15.8227C13.835 16.3198 13.1626 17.0196 12.6983 17.8539C10.6872 21.3359 12.1873 26.4533 14.1138 29.2679C15.0777 30.6461 16.2042 32.1857 17.6782 32.1311C19.1206 32.0712 19.6593 31.2113 21.4004 31.2113C23.1253 31.2113 23.6307 32.1311 25.1347 32.0964C26.6824 32.0712 27.6576 30.712 28.5877 29.3207C29.2802 28.3387 29.8131 27.2533 30.1667 26.1048C29.2674 25.7245 28.5001 25.0879 27.9602 24.2744C27.4204 23.4609 27.132 22.5065 27.1309 21.5301Z" fill="white"/>
<path d="M24.2904 13.1176C25.1343 12.1045 25.55 10.8024 25.4494 9.4877C24.1601 9.62312 22.9691 10.2393 22.1138 11.2135C21.6956 11.6894 21.3754 12.2431 21.1713 12.8429C20.9672 13.4427 20.8833 14.0768 20.9245 14.709C21.5694 14.7157 22.2073 14.5759 22.7904 14.3002C23.3734 14.0246 23.8863 13.6202 24.2904 13.1176Z" fill="white"/>
<path d="M40.861 15V8.55762H43.0802C43.5812 8.55762 43.9635 8.58838 44.2272 8.6499C44.5963 8.73486 44.9113 8.88867 45.172 9.11133C45.5118 9.39844 45.7653 9.76611 45.9323 10.2144C46.1022 10.6597 46.1871 11.1694 46.1871 11.7437C46.1871 12.2329 46.13 12.6665 46.0157 13.0444C45.9015 13.4224 45.755 13.7358 45.5763 13.9849C45.3976 14.231 45.2013 14.4258 44.9874 14.5693C44.7765 14.71 44.5201 14.8169 44.2184 14.8901C43.9196 14.9634 43.5753 15 43.1857 15H40.861ZM41.7135 14.2397H43.089C43.5138 14.2397 43.8463 14.2002 44.0865 14.1211C44.3297 14.042 44.5231 13.9307 44.6666 13.7871C44.8688 13.585 45.0255 13.314 45.1368 12.9741C45.2511 12.6313 45.3082 12.2168 45.3082 11.7305C45.3082 11.0566 45.1969 10.5396 44.9742 10.1792C44.7545 9.81592 44.4865 9.57275 44.17 9.44971C43.9415 9.36182 43.5739 9.31787 43.067 9.31787H41.7135V14.2397ZM46.9694 12.6665C46.9694 11.8022 47.2096 11.1621 47.6901 10.7461C48.0914 10.4004 48.5807 10.2275 49.1578 10.2275C49.7994 10.2275 50.3239 10.4385 50.7311 10.8604C51.1383 11.2793 51.3419 11.8594 51.3419 12.6006C51.3419 13.2012 51.2511 13.6743 51.0695 14.02C50.8907 14.3628 50.6285 14.6294 50.2828 14.8198C49.9401 15.0103 49.5651 15.1055 49.1578 15.1055C48.5045 15.1055 47.9757 14.896 47.5714 14.4771C47.17 14.0581 46.9694 13.4546 46.9694 12.6665ZM47.7823 12.6665C47.7823 13.2642 47.9127 13.7124 48.1735 14.0112C48.4342 14.3071 48.7623 14.4551 49.1578 14.4551C49.5504 14.4551 49.8771 14.3057 50.1378 14.0068C50.3986 13.708 50.5289 13.2524 50.5289 12.6401C50.5289 12.063 50.3971 11.6265 50.1334 11.3306C49.8727 11.0317 49.5475 10.8823 49.1578 10.8823C48.7623 10.8823 48.4342 11.0303 48.1735 11.3262C47.9127 11.6221 47.7823 12.0688 47.7823 12.6665ZM53.1349 15L51.7067 10.333H52.524L53.2667 13.0269L53.5436 14.0288C53.5553 13.979 53.6359 13.6582 53.7853 13.0664L54.528 10.333H55.3409L56.0397 13.04L56.2726 13.9321L56.5406 13.0312L57.3405 10.333H58.1095L56.6505 15H55.8287L55.0861 12.2051L54.9059 11.4097L53.9611 15H53.1349ZM58.7775 15V10.333H59.4894V10.9966C59.8322 10.4839 60.3273 10.2275 60.9747 10.2275C61.256 10.2275 61.5138 10.2788 61.7482 10.3813C61.9855 10.481 62.1627 10.6128 62.2799 10.7769C62.3971 10.9409 62.4791 11.1357 62.526 11.3613C62.5553 11.5078 62.5699 11.7642 62.5699 12.1304V15H61.7789V12.1611C61.7789 11.8389 61.7482 11.5986 61.6866 11.4404C61.6251 11.2793 61.5153 11.1519 61.3571 11.0581C61.2018 10.9614 61.0187 10.9131 60.8077 10.9131C60.4708 10.9131 60.1793 11.02 59.9332 11.2339C59.6901 11.4478 59.5685 11.8535 59.5685 12.4512V15H58.7775ZM63.7697 15V8.55762H64.5607V15H63.7697ZM65.4967 12.6665C65.4967 11.8022 65.7369 11.1621 66.2174 10.7461C66.6188 10.4004 67.108 10.2275 67.6852 10.2275C68.3268 10.2275 68.8512 10.4385 69.2584 10.8604C69.6656 11.2793 69.8693 11.8594 69.8693 12.6006C69.8693 13.2012 69.7784 13.6743 69.5968 14.02C69.4181 14.3628 69.1559 14.6294 68.8102 14.8198C68.4674 15.0103 68.0924 15.1055 67.6852 15.1055C67.0319 15.1055 66.5031 14.896 66.0988 14.4771C65.6974 14.0581 65.4967 13.4546 65.4967 12.6665ZM66.3097 12.6665C66.3097 13.2642 66.4401 13.7124 66.7008 14.0112C66.9615 14.3071 67.2897 14.4551 67.6852 14.4551C68.0778 14.4551 68.4044 14.3057 68.6652 14.0068C68.9259 13.708 69.0563 13.2524 69.0563 12.6401C69.0563 12.063 68.9244 11.6265 68.6608 11.3306C68.4 11.0317 68.0748 10.8823 67.6852 10.8823C67.2897 10.8823 66.9615 11.0303 66.7008 11.3262C66.4401 11.6221 66.3097 12.0688 66.3097 12.6665ZM73.8463 14.4243C73.5533 14.6733 73.2706 14.8491 72.9982 14.9517C72.7286 15.0542 72.4386 15.1055 72.1281 15.1055C71.6154 15.1055 71.2213 14.981 70.9459 14.7319C70.6705 14.48 70.5328 14.1592 70.5328 13.7695C70.5328 13.541 70.5841 13.333 70.6866 13.1455C70.7921 12.9551 70.9283 12.8027 71.0953 12.6885C71.2653 12.5742 71.4557 12.4878 71.6666 12.4292C71.8219 12.3882 72.0563 12.3486 72.3698 12.3105C73.0084 12.2344 73.4786 12.1436 73.7804 12.0381C73.7833 11.9297 73.7848 11.8608 73.7848 11.8315C73.7848 11.5093 73.7101 11.2822 73.5607 11.1504C73.3585 10.9717 73.0582 10.8823 72.6598 10.8823C72.2877 10.8823 72.0123 10.9482 71.8336 11.0801C71.6578 11.209 71.5275 11.439 71.4425 11.77L70.6691 11.6646C70.7394 11.3335 70.8551 11.0669 71.0162 10.8647C71.1774 10.6597 71.4103 10.5029 71.715 10.3945C72.0197 10.2832 72.3727 10.2275 72.774 10.2275C73.1725 10.2275 73.4962 10.2744 73.7452 10.3682C73.9943 10.4619 74.1774 10.5806 74.2946 10.7241C74.4117 10.8647 74.4938 11.0435 74.5406 11.2603C74.567 11.395 74.5802 11.6382 74.5802 11.9897V13.0444C74.5802 13.7798 74.5963 14.2456 74.6285 14.4419C74.6637 14.6353 74.7311 14.8213 74.8307 15H74.0045C73.9225 14.8359 73.8698 14.644 73.8463 14.4243ZM73.7804 12.6577C73.4933 12.7749 73.0626 12.8745 72.4884 12.9565C72.1632 13.0034 71.9332 13.0562 71.7985 13.1147C71.6637 13.1733 71.5597 13.2598 71.4865 13.374C71.4132 13.4854 71.3766 13.6099 71.3766 13.7476C71.3766 13.9585 71.4557 14.1343 71.6139 14.2749C71.775 14.4155 72.0094 14.4858 72.317 14.4858C72.6217 14.4858 72.8927 14.4199 73.13 14.2881C73.3673 14.1533 73.5416 13.9702 73.653 13.7388C73.7379 13.5601 73.7804 13.2964 73.7804 12.9478V12.6577ZM78.8385 15V14.4111C78.5426 14.874 78.1075 15.1055 77.5333 15.1055C77.1613 15.1055 76.8185 15.0029 76.505 14.7979C76.1945 14.5928 75.9528 14.3071 75.7799 13.9409C75.61 13.5718 75.525 13.1484 75.525 12.6709C75.525 12.2051 75.6027 11.7832 75.7579 11.4053C75.9132 11.0244 76.1461 10.7329 76.4567 10.5308C76.7672 10.3286 77.1144 10.2275 77.4982 10.2275C77.7794 10.2275 78.0299 10.2876 78.2496 10.4077C78.4694 10.5249 78.6481 10.6787 78.7858 10.8691V8.55762H79.5724V15H78.8385ZM76.338 12.6709C76.338 13.2686 76.464 13.7153 76.7159 14.0112C76.9679 14.3071 77.2653 14.4551 77.608 14.4551C77.9537 14.4551 78.2467 14.3145 78.4869 14.0332C78.7301 13.749 78.8517 13.3169 78.8517 12.7368C78.8517 12.0981 78.7286 11.6294 78.4825 11.3306C78.2365 11.0317 77.9332 10.8823 77.5729 10.8823C77.2213 10.8823 76.9269 11.0259 76.6896 11.313C76.4552 11.6001 76.338 12.0527 76.338 12.6709ZM83.0309 12.6665C83.0309 11.8022 83.2711 11.1621 83.7516 10.7461C84.153 10.4004 84.6422 10.2275 85.2194 10.2275C85.861 10.2275 86.3854 10.4385 86.7926 10.8604C87.1998 11.2793 87.4034 11.8594 87.4034 12.6006C87.4034 13.2012 87.3126 13.6743 87.131 14.02C86.9523 14.3628 86.6901 14.6294 86.3444 14.8198C86.0016 15.0103 85.6266 15.1055 85.2194 15.1055C84.566 15.1055 84.0372 14.896 83.6329 14.4771C83.2316 14.0581 83.0309 13.4546 83.0309 12.6665ZM83.8439 12.6665C83.8439 13.2642 83.9742 13.7124 84.235 14.0112C84.4957 14.3071 84.8239 14.4551 85.2194 14.4551C85.6119 14.4551 85.9386 14.3057 86.1993 14.0068C86.4601 13.708 86.5905 13.2524 86.5905 12.6401C86.5905 12.063 86.4586 11.6265 86.1949 11.3306C85.9342 11.0317 85.609 10.8823 85.2194 10.8823C84.8239 10.8823 84.4957 11.0303 84.235 11.3262C83.9742 11.6221 83.8439 12.0688 83.8439 12.6665ZM88.3351 15V10.333H89.047V10.9966C89.3898 10.4839 89.8849 10.2275 90.5323 10.2275C90.8136 10.2275 91.0714 10.2788 91.3058 10.3813C91.5431 10.481 91.7203 10.6128 91.8375 10.7769C91.9547 10.9409 92.0367 11.1357 92.0836 11.3613C92.1129 11.5078 92.1276 11.7642 92.1276 12.1304V15H91.3365V12.1611C91.3365 11.8389 91.3058 11.5986 91.2443 11.4404C91.1827 11.2793 91.0729 11.1519 90.9147 11.0581C90.7594 10.9614 90.5763 10.9131 90.3654 10.9131C90.0284 10.9131 89.7369 11.02 89.4908 11.2339C89.2477 11.4478 89.1261 11.8535 89.1261 12.4512V15H88.3351ZM97.5768 14.2925L97.691 14.9912C97.4684 15.0381 97.2692 15.0615 97.0934 15.0615C96.8063 15.0615 96.5836 15.0161 96.4254 14.9253C96.2672 14.8345 96.1559 14.7158 96.0914 14.5693C96.027 14.4199 95.9948 14.1079 95.9948 13.6333V10.9482H95.4147V10.333H95.9948V9.17725L96.7814 8.70264V10.333H97.5768V10.9482H96.7814V13.6772C96.7814 13.9028 96.7946 14.0479 96.8209 14.1123C96.8502 14.1768 96.8956 14.228 96.9572 14.2661C97.0216 14.3042 97.1124 14.3232 97.2296 14.3232C97.3175 14.3232 97.4332 14.313 97.5768 14.2925ZM98.3546 15V8.55762H99.1456V10.8691C99.5148 10.4414 99.9806 10.2275 100.543 10.2275C100.889 10.2275 101.189 10.2964 101.444 10.4341C101.699 10.5688 101.88 10.7563 101.989 10.9966C102.1 11.2368 102.156 11.5854 102.156 12.0425V15H101.365V12.0425C101.365 11.647 101.278 11.3599 101.106 11.1812C100.936 10.9995 100.694 10.9087 100.38 10.9087C100.146 10.9087 99.9249 10.9702 99.7169 11.0933C99.5118 11.2134 99.3654 11.3774 99.2775 11.5854C99.1896 11.7935 99.1456 12.0806 99.1456 12.4468V15H98.3546ZM106.559 13.4971L107.377 13.5981C107.248 14.0757 107.009 14.4463 106.66 14.71C106.312 14.9736 105.866 15.1055 105.324 15.1055C104.642 15.1055 104.1 14.896 103.698 14.4771C103.3 14.0552 103.101 13.4648 103.101 12.7061C103.101 11.9209 103.303 11.3115 103.707 10.8779C104.111 10.4443 104.636 10.2275 105.28 10.2275C105.904 10.2275 106.414 10.4399 106.81 10.8647C107.205 11.2896 107.403 11.8872 107.403 12.6577C107.403 12.7046 107.401 12.7749 107.399 12.8687H103.918C103.947 13.3813 104.092 13.7739 104.353 14.0464C104.614 14.3188 104.939 14.4551 105.329 14.4551C105.619 14.4551 105.866 14.3789 106.071 14.2266C106.276 14.0742 106.439 13.8311 106.559 13.4971ZM103.962 12.2183H106.568C106.533 11.8257 106.433 11.5312 106.269 11.335C106.017 11.0303 105.691 10.8779 105.289 10.8779C104.926 10.8779 104.62 10.9995 104.371 11.2427C104.125 11.4858 103.988 11.811 103.962 12.2183Z" fill="white"/>
<path d="M48.0416 28.2686H43.3082L42.1715 31.6251H40.1666L44.65 19.2071H46.733L51.2164 31.6251H49.1774L48.0416 28.2686ZM43.7985 26.7198H47.5505L45.7008 21.2725H45.649L43.7985 26.7198Z" fill="white"/>
<path d="M60.8991 27.0987C60.8991 29.9122 59.3932 31.7198 57.1208 31.7198C56.5451 31.7499 55.9726 31.6173 55.4688 31.3372C54.965 31.057 54.5503 30.6407 54.2721 30.1358H54.2291V34.6202H52.3707V22.5713H54.1696V24.0772H54.2037C54.4947 23.5747 54.9164 23.1605 55.424 22.8787C55.9317 22.5969 56.5062 22.4579 57.0865 22.4766C59.3844 22.4766 60.8991 24.293 60.8991 27.0987ZM58.9889 27.0987C58.9889 25.2657 58.0416 24.0606 56.5963 24.0606C55.1764 24.0606 54.2213 25.2911 54.2213 27.0987C54.2213 28.9229 55.1764 30.1446 56.5963 30.1446C58.0417 30.1446 58.9889 28.9483 58.9889 27.0987H58.9889Z" fill="white"/>
<path d="M70.8643 27.0987C70.8643 29.9122 69.358 31.7198 67.0855 31.7198C66.5099 31.7499 65.9374 31.6173 65.4336 31.3372C64.9298 31.057 64.5151 30.6407 64.2369 30.1358H64.1939V34.6202H62.3355V22.5713H64.1343V24.0772H64.1685C64.4595 23.5747 64.8812 23.1605 65.3888 22.8787C65.8965 22.5969 66.471 22.4579 67.0513 22.4766C69.3492 22.4766 70.8643 24.293 70.8643 27.0987ZM68.9537 27.0987C68.9537 25.2657 68.0064 24.0606 66.5611 24.0606C65.1412 24.0606 64.1861 25.2911 64.1861 27.0987C64.1861 28.9229 65.1412 30.1446 66.5611 30.1446C68.0064 30.1446 68.9537 28.9483 68.9537 27.0987Z" fill="white"/>
<path d="M77.4493 28.1651C77.587 29.3965 78.7833 30.2051 80.4181 30.2051C81.9845 30.2051 83.1114 29.3965 83.1114 28.2861C83.1114 27.3223 82.4318 26.7451 80.8224 26.3496L79.213 25.9619C76.9327 25.4111 75.8741 24.3447 75.8741 22.6143C75.8741 20.4717 77.7413 19 80.3917 19C83.0167 19 84.8155 20.4717 84.8761 22.6143H83.0001C82.8878 21.375 81.8634 20.627 80.3663 20.627C78.8692 20.627 77.8448 21.3838 77.8448 22.4854C77.8448 23.3633 78.4991 23.8799 80.0997 24.2754L81.4679 24.6113C84.0157 25.2138 85.0733 26.2373 85.0733 28.0537C85.0733 30.3769 83.2237 31.832 80.2803 31.832C77.5264 31.832 75.6671 30.4111 75.5469 28.165L77.4493 28.1651Z" fill="white"/>
<path d="M89.0861 20.4288V22.5714H90.8077V24.043H89.0861V29.0342C89.0861 29.8096 89.4308 30.171 90.1876 30.171C90.392 30.1674 90.5961 30.153 90.7989 30.128V31.5909C90.4587 31.6544 90.1128 31.6832 89.7667 31.6768C87.9337 31.6768 87.2189 30.9883 87.2189 29.2325V24.043H85.9025V22.5714H87.2188V20.4288H89.0861Z" fill="white"/>
<path d="M91.8038 27.0987C91.8038 24.2501 93.4816 22.46 96.0978 22.46C98.7228 22.46 100.393 24.25 100.393 27.0987C100.393 29.9551 98.7316 31.7374 96.0978 31.7374C93.4649 31.7374 91.8038 29.9551 91.8038 27.0987ZM98.4991 27.0987C98.4991 25.1446 97.6036 23.9913 96.0978 23.9913C94.5919 23.9913 93.6964 25.1534 93.6964 27.0987C93.6964 29.0606 94.5919 30.2051 96.0978 30.2051C97.6036 30.2051 98.4991 29.0606 98.4991 27.0987H98.4991Z" fill="white"/>
<path d="M101.925 22.5714H103.697V24.1124H103.74C103.86 23.6311 104.142 23.2057 104.539 22.9078C104.935 22.61 105.422 22.4577 105.918 22.4766C106.132 22.4759 106.346 22.4991 106.555 22.546V24.2842C106.284 24.2016 106.002 24.1637 105.72 24.1719C105.45 24.161 105.181 24.2086 104.931 24.3115C104.681 24.4144 104.456 24.5701 104.272 24.768C104.088 24.9659 103.949 25.2012 103.865 25.4579C103.781 25.7146 103.753 25.9865 103.783 26.2549V31.6251H101.925L101.925 22.5714Z" fill="white"/>
<path d="M115.123 28.9659C114.873 30.6094 113.273 31.7374 111.225 31.7374C108.591 31.7374 106.956 29.9727 106.956 27.1417C106.956 24.3018 108.6 22.46 111.147 22.46C113.651 22.46 115.227 24.1807 115.227 26.9258V27.5626H108.832V27.6749C108.803 28.0081 108.844 28.3437 108.955 28.6596C109.065 28.9754 109.241 29.2642 109.471 29.5067C109.702 29.7493 109.981 29.9401 110.291 30.0664C110.6 30.1927 110.933 30.2516 111.268 30.2393C111.707 30.2805 112.148 30.1787 112.524 29.9493C112.901 29.7199 113.194 29.375 113.359 28.9659L115.123 28.9659ZM108.841 26.2637H113.367C113.384 25.9641 113.339 25.6643 113.234 25.3831C113.129 25.1019 112.968 24.8454 112.759 24.6296C112.55 24.4138 112.3 24.2435 112.022 24.1293C111.745 24.0151 111.447 23.9594 111.147 23.9659C110.844 23.9641 110.544 24.0222 110.264 24.137C109.984 24.2517 109.729 24.4208 109.515 24.6344C109.301 24.848 109.131 25.102 109.015 25.3817C108.899 25.6613 108.84 25.9611 108.841 26.2637V26.2637Z" fill="white"/>
<rect x="1.24329" y="0.5" width="126.423" height="40.6202" rx="8.5" stroke="#FC8574"/>
</svg>
