<svg width="375" height="350" viewBox="0 0 375 375" fill="none" xmlns="http://www.w3.org/2000/svg">
        <g clip-path="url(#clip0_2992_6806)">
        <path d="M278.755 41.5243V352.047C278.755 365.53 267.732 376.547 254.258 376.547H108.004C101.51 376.533 95.2867 373.947 90.6948 369.355C86.103 364.764 83.5167 358.54 83.5019 352.047V41.5243C83.5019 28.0505 94.5244 17.028 107.998 17.028H254.253C260.747 17.0374 266.972 19.6213 271.564 24.2132C276.156 28.8051 278.74 35.0304 278.749 41.5243H278.755Z" fill="#D1D1D1"/>
        <path d="M268.311 55.1666V325.528C268.311 338.403 256.775 348.936 242.684 348.936H119.573C114.174 348.959 108.891 347.365 104.405 344.361C98.0731 340.088 93.9476 333.227 93.9476 325.526V55.1666C93.9476 42.2921 105.479 31.7583 119.575 31.7583H139.841L145.884 41.8707H222.714L227.461 31.7583H242.685C246.968 31.7481 251.192 32.7463 255.017 34.6722C255.539 34.9369 256.051 35.2171 256.552 35.513C263.616 39.6872 268.311 46.9494 268.311 55.1666Z" fill="#F4F4F4"/>
        <path d="M268.354 55.1666V302.223C268.354 315.097 256.818 325.631 242.727 325.631H119.616C105.521 325.631 93.9888 315.095 93.9888 302.223V55.1666C93.9888 42.2921 105.521 31.7584 119.616 31.7584H139.882L140.537 32.8595L145.925 41.867H222.755L227.502 31.7546H242.727C247.602 31.7399 252.392 33.0367 256.594 35.5093C263.659 39.6872 268.354 46.9494 268.354 55.1666Z" fill="white"/>
        <g opacity="0.7">
        <path d="M198.74 33.5074H158.103C157.148 33.5074 156.233 33.1282 155.558 32.4532C154.883 31.7782 154.504 30.8628 154.504 29.9082C154.504 28.9536 154.883 28.0381 155.558 27.3631C156.233 26.6881 157.148 26.3089 158.103 26.3089H198.74C199.694 26.3089 200.61 26.6881 201.285 27.3631C201.96 28.0381 202.339 28.9536 202.339 29.9082C202.339 30.8628 201.96 31.7782 201.285 32.4532C200.61 33.1282 199.694 33.5074 198.74 33.5074ZM158.103 27.4325C157.446 27.4325 156.817 27.6934 156.352 28.1576C155.888 28.6219 155.627 29.2516 155.627 29.9082C155.627 30.5648 155.888 31.1945 156.352 31.6587C156.817 32.123 157.446 32.3838 158.103 32.3838H198.74C199.396 32.3838 200.026 32.123 200.49 31.6587C200.955 31.1945 201.215 30.5648 201.215 29.9082C201.215 29.2516 200.955 28.6219 200.49 28.1576C200.026 27.6934 199.396 27.4325 198.74 27.4325H158.103Z" fill="white"/>
        </g>
        <g opacity="0.7">
        <path d="M212.221 34.2733H210.899C209.945 34.2723 209.03 33.8928 208.355 33.218C207.68 32.5433 207.301 31.6284 207.3 30.6741V29.3445C207.301 28.39 207.68 27.4749 208.355 26.7999C209.03 26.1248 209.945 25.7449 210.899 25.7434H212.229C213.183 25.7449 214.098 26.1248 214.773 26.7999C215.447 27.4749 215.827 28.39 215.828 29.3445V30.6741C215.827 31.1472 215.734 31.6157 215.552 32.0526C215.371 32.4896 215.105 32.8865 214.77 33.2207C214.435 33.5549 214.037 33.8199 213.6 34.0005C213.163 34.1811 212.694 34.2738 212.221 34.2733ZM210.891 26.867C210.235 26.868 209.605 27.1294 209.141 27.5938C208.677 28.0583 208.416 28.6879 208.416 29.3445V30.6741C208.416 30.9998 208.481 31.3222 208.606 31.6229C208.73 31.9237 208.914 32.1968 209.144 32.4267C209.375 32.6567 209.648 32.8389 209.95 32.9629C210.251 33.087 210.573 33.1505 210.899 33.1497H212.229C212.885 33.1492 213.514 32.8883 213.979 32.4241C214.443 31.9599 214.704 31.3305 214.704 30.6741V29.3445C214.704 28.6879 214.443 28.0583 213.979 27.5938C213.515 27.1294 212.885 26.868 212.229 26.867H210.891Z" fill="white"/>
        </g>
        <path d="M185.281 84.9868C185.257 89.6259 183.857 94.1536 181.26 97.9973C178.662 101.841 174.983 104.828 170.688 106.581C166.393 108.334 161.674 108.774 157.129 107.845C152.584 106.916 148.417 104.66 145.154 101.362C141.891 98.0648 139.679 93.8736 138.798 89.3189C137.917 84.7643 138.406 80.0506 140.204 75.7741C142.002 71.4976 145.028 67.8503 148.899 65.2935C152.77 62.7368 157.312 61.3853 161.951 61.41C165.032 61.422 168.081 62.0419 170.922 63.234C173.763 64.4261 176.341 66.1672 178.508 68.3573C180.675 70.5475 182.389 73.1437 183.551 75.9973C184.713 78.8509 185.301 81.9057 185.281 84.9868Z" fill="#FC8574"/>
        <path d="M182.477 84.9719C182.454 89.0531 181.222 93.0358 178.935 96.4166C176.649 99.7973 173.411 102.424 169.632 103.965C165.853 105.506 161.702 105.891 157.703 105.073C153.705 104.255 150.039 102.269 147.169 99.3675C144.299 96.4658 142.354 92.7782 141.579 88.7711C140.805 84.7639 141.236 80.6171 142.818 76.855C144.4 73.0929 147.063 69.8844 150.468 67.6353C153.874 65.3861 157.87 64.1973 161.951 64.219C164.663 64.2286 167.346 64.7735 169.847 65.8226C172.348 66.8717 174.617 68.4043 176.524 70.3325C178.431 72.2606 179.939 74.5464 180.961 77.0586C181.982 79.5708 182.498 82.26 182.477 84.9719Z" fill="white"/>
        <path d="M174.234 101.363C170.628 104.07 166.236 105.522 161.727 105.498C157.219 105.474 152.842 103.974 149.266 101.228C149.47 98.8932 150.322 96.6615 151.727 94.785C153.132 92.9086 155.034 91.462 157.217 90.6086C155.93 89.6367 154.981 88.284 154.506 86.7426C154.031 85.2012 154.054 83.5494 154.57 82.0214C155.087 80.4935 156.072 79.1671 157.385 78.2305C158.698 77.2938 160.273 76.7945 161.886 76.8034C163.499 76.8123 165.068 77.3289 166.371 78.2799C167.673 79.231 168.644 80.5681 169.143 82.1017C169.643 83.6352 169.648 85.2872 169.156 86.8233C168.663 88.3593 167.7 89.7015 166.402 90.6592C168.575 91.5367 170.46 93.0039 171.844 94.8952C173.227 96.7865 174.055 99.0267 174.234 101.363Z" fill="#FC8574"/>
        <path d="M224.021 84.9868C223.997 89.626 222.597 94.1537 220 97.9975C217.402 101.841 213.723 104.829 209.428 106.581C205.132 108.334 200.414 108.774 195.869 107.845C191.323 106.916 187.156 104.659 183.893 101.362C180.63 98.0639 178.418 93.8726 177.537 89.3178C176.657 84.763 177.146 80.0493 178.945 75.7728C180.743 71.4964 183.769 67.8492 187.64 65.2926C191.511 62.7361 196.054 61.3849 200.693 61.41C203.774 61.4228 206.822 62.0431 209.663 63.2356C212.503 64.428 215.081 66.169 217.248 68.3591C219.415 70.5491 221.128 73.1451 222.291 75.9983C223.453 78.8516 224.041 81.906 224.021 84.9868Z" fill="#B9DCD4"/>
        <path d="M221.217 84.9718C221.194 89.0531 219.962 93.0359 217.675 96.4167C215.389 99.7974 212.151 102.424 208.372 103.965C204.592 105.506 200.441 105.891 196.442 105.073C192.444 104.254 188.778 102.269 185.908 99.3668C183.038 96.4649 181.093 92.7771 180.319 88.7699C179.545 84.7626 179.976 80.6157 181.559 76.8537C183.141 73.0916 185.804 69.8833 189.21 67.6343C192.615 65.3854 196.612 64.1968 200.693 64.219C203.405 64.2288 206.088 64.7739 208.589 65.8231C211.089 66.8723 213.358 68.405 215.265 70.3331C217.172 72.2612 218.679 74.5469 219.701 77.059C220.722 79.571 221.238 82.2601 221.217 84.9718Z" fill="white"/>
        <path d="M212.974 101.363C209.368 104.07 204.976 105.522 200.467 105.498C195.959 105.474 191.582 103.974 188.006 101.228C188.21 98.8933 189.063 96.6617 190.468 94.7852C191.873 92.9088 193.774 91.4622 195.957 90.6086C194.67 89.6367 193.721 88.284 193.246 86.7426C192.771 85.2012 192.794 83.5494 193.31 82.0214C193.827 80.4935 194.812 79.1671 196.125 78.2305C197.438 77.2938 199.013 76.7945 200.626 76.8034C202.239 76.8123 203.808 77.3289 205.111 78.2799C206.413 79.231 207.384 80.5681 207.883 82.1017C208.383 83.6352 208.388 85.2872 207.896 86.8233C207.403 88.3593 206.44 89.7015 205.142 90.6592C207.315 91.5367 209.2 93.0039 210.584 94.8952C211.967 96.7865 212.795 99.0267 212.974 101.363Z" fill="#B9DCD4"/>
        <g opacity="0.3">
        <path d="M140.487 32.8539L93.9457 88.6104V55.1666C93.9457 42.2921 105.478 31.7584 119.573 31.7584H139.839L140.487 32.8539Z" fill="white"/>
        </g>
        <g opacity="0.15">
        <path d="M268.311 64.528V104.933L93.9457 313.794V273.386L268.311 64.528Z" fill="white"/>
        <g opacity="0.3">
        <path d="M268.311 148.03V312.346L237.764 348.938H119.573C114.174 348.96 108.891 347.367 104.405 344.363L120.041 325.637L268.311 148.03Z" fill="white"/>
        </g>
        </g>
        <path d="M234.245 132.758H127.846C124.829 132.768 121.939 133.971 119.806 136.105C117.673 138.238 116.47 141.129 116.461 144.146V160.251C116.466 162.323 117.036 164.355 118.107 166.128C119.179 167.901 120.713 169.35 122.545 170.318C122.33 174.813 120.517 177.466 119.622 179.236C119.566 179.353 119.546 179.484 119.566 179.612C119.585 179.74 119.642 179.86 119.729 179.956C119.816 180.051 119.931 180.119 120.057 180.149C120.183 180.18 120.315 180.172 120.436 180.127C125.443 178.46 129.938 175.537 133.494 171.639H234.243C237.261 171.629 240.152 170.426 242.285 168.293C244.419 166.159 245.622 163.268 245.631 160.251V144.146C245.622 141.129 244.419 138.238 242.286 136.105C240.153 133.971 237.262 132.768 234.245 132.758Z" fill="#FFD9D9"/>
        <g opacity="0.5">
        <path d="M228.73 140.998H131.635C131.169 140.998 130.792 141.375 130.792 141.841V144.039C130.792 144.505 131.169 144.882 131.635 144.882H228.73C229.196 144.882 229.573 144.505 229.573 144.039V141.841C229.573 141.375 229.196 140.998 228.73 140.998Z" fill="white"/>
        </g>
        <g opacity="0.5">
        <path d="M228.73 150.418H131.635C131.169 150.418 130.792 150.795 130.792 151.26V153.459C130.792 153.924 131.169 154.301 131.635 154.301H228.73C229.196 154.301 229.573 153.924 229.573 153.459V151.26C229.573 150.795 229.196 150.418 228.73 150.418Z" fill="white"/>
        </g>
        <g opacity="0.5">
        <path d="M228.73 159.837H131.635C131.169 159.837 130.792 160.214 130.792 160.68V162.878C130.792 163.344 131.169 163.721 131.635 163.721H228.73C229.196 163.721 229.573 163.344 229.573 162.878V160.68C229.573 160.214 229.196 159.837 228.73 159.837Z" fill="white"/>
        </g>
        <path d="M234.245 248.489H127.846C124.829 248.499 121.939 249.702 119.806 251.835C117.673 253.969 116.47 256.859 116.461 259.876V275.981C116.466 278.053 117.036 280.085 118.107 281.858C119.179 283.632 120.713 285.08 122.545 286.049C122.33 290.543 120.517 293.197 119.622 294.966C119.566 295.083 119.546 295.214 119.566 295.343C119.585 295.471 119.642 295.59 119.729 295.686C119.816 295.782 119.931 295.849 120.057 295.88C120.183 295.91 120.315 295.903 120.436 295.858C125.443 294.19 129.938 291.267 133.494 287.369H234.243C237.261 287.36 240.152 286.157 242.285 284.023C244.419 281.89 245.622 278.999 245.631 275.981V259.876C245.622 256.859 244.419 253.969 242.286 251.835C240.153 249.702 237.262 248.499 234.245 248.489Z" fill="#FFD9D9"/>
        <g opacity="0.5">
        <path d="M228.73 256.728H131.635C131.169 256.728 130.792 257.106 130.792 257.571V259.77C130.792 260.235 131.169 260.612 131.635 260.612H228.73C229.196 260.612 229.573 260.235 229.573 259.77V257.571C229.573 257.106 229.196 256.728 228.73 256.728Z" fill="white"/>
        </g>
        <g opacity="0.5">
        <path d="M228.73 266.148H131.635C131.169 266.148 130.792 266.525 130.792 266.991V269.189C130.792 269.655 131.169 270.032 131.635 270.032H228.73C229.196 270.032 229.573 269.655 229.573 269.189V266.991C229.573 266.525 229.196 266.148 228.73 266.148Z" fill="white"/>
        </g>
        <g opacity="0.5">
        <path d="M228.73 275.567H131.635C131.169 275.567 130.792 275.945 130.792 276.41V278.609C130.792 279.074 131.169 279.451 131.635 279.451H228.73C229.196 279.451 229.573 279.074 229.573 278.609V276.41C229.573 275.945 229.196 275.567 228.73 275.567Z" fill="white"/>
        </g>
        <path d="M127.847 189.125H234.245C237.262 189.135 240.153 190.338 242.286 192.472C244.419 194.605 245.622 197.496 245.631 200.513V216.618C245.625 218.69 245.056 220.722 243.984 222.495C242.913 224.268 241.379 225.717 239.547 226.685C239.762 231.18 241.575 233.833 242.47 235.603C242.526 235.72 242.545 235.851 242.526 235.979C242.507 236.108 242.45 236.227 242.363 236.323C242.275 236.419 242.161 236.486 242.035 236.517C241.909 236.547 241.777 236.539 241.656 236.494C236.649 234.827 232.154 231.904 228.597 228.006H127.848C124.831 227.996 121.94 226.793 119.806 224.66C117.673 222.526 116.47 219.635 116.461 216.618V200.513C116.47 197.496 117.673 194.605 119.806 192.472C121.939 190.338 124.83 189.135 127.847 189.125Z" fill="#DCF1EC"/>
        <g opacity="0.5">
        <path d="M133.361 197.365H230.457C230.922 197.365 231.3 197.742 231.3 198.208V200.406C231.3 200.872 230.922 201.249 230.457 201.249H133.361C132.896 201.249 132.519 200.872 132.519 200.406V198.208C132.519 197.742 132.896 197.365 133.361 197.365Z" fill="white"/>
        </g>
        <g opacity="0.5">
        <path d="M133.361 206.785H230.457C230.922 206.785 231.3 207.162 231.3 207.627V209.826C231.3 210.291 230.922 210.668 230.457 210.668H133.361C132.896 210.668 132.519 210.291 132.519 209.826V207.627C132.519 207.162 132.896 206.785 133.361 206.785Z" fill="white"/>
        </g>
        <g opacity="0.5">
        <path d="M133.361 216.204H230.457C230.922 216.204 231.3 216.581 231.3 217.047V219.245C231.3 219.711 230.922 220.088 230.457 220.088H133.361C132.896 220.088 132.519 219.711 132.519 219.245V217.047C132.519 216.581 132.896 216.204 133.361 216.204Z" fill="white"/>
        </g>
        <g filter="url(#filter0_d_2992_6806)">
        <g opacity="0.5">
        <path d="M197.277 331.716H240.382C240.847 331.716 241.224 332.093 241.224 332.558V334.757C241.224 335.222 240.847 335.6 240.382 335.6H197.277C196.812 335.6 196.434 335.222 196.434 334.757V332.558C196.434 332.093 196.812 331.716 197.277 331.716Z" fill="white"/>
        </g>
        <g opacity="0.5">
        <path d="M182.603 340.684H240.382C240.847 340.684 241.224 341.061 241.224 341.527V343.725C241.224 344.191 240.847 344.568 240.382 344.568H182.603C182.137 344.568 181.76 344.191 181.76 343.725V341.527C181.76 341.061 182.137 340.684 182.603 340.684Z" fill="white"/>
        </g>
        <path d="M249.299 378.381L406.567 397.167L402.878 429.032C402.878 429.032 207.464 437.343 190.017 421.654C172.569 405.965 181.436 376.18 181.436 376.18L249.299 378.381Z" fill="#0F1470"/>
        <path d="M353.721 406.012C354.363 401.995 332.779 380.967 332.779 380.967L312.313 393.489L325.163 414.813C325.163 414.813 351.816 417.909 353.721 406.012Z" fill="#FAC1B3"/>
        <path d="M327.06 407.622C332.526 410.073 338.966 411.18 346.503 407.478C346.503 407.478 349.5 398.272 357.85 403.624C357.85 403.624 367.494 414.411 381.82 417.317C401.693 421.345 402.586 430.598 402.586 430.598H321.024C321.024 430.598 321.318 418.036 322.648 410.102C322.996 408.053 325.163 406.772 327.06 407.622Z" fill="#A6AFFF"/>
        <path d="M337.277 427.401C333.8 427.401 330.981 424.582 330.981 421.105C330.981 417.628 333.8 414.809 337.277 414.809C340.754 414.809 343.573 417.628 343.573 421.105C343.573 424.582 340.754 427.401 337.277 427.401Z" fill="#DBDFFF"/>
        <path d="M384.614 414.573C384.614 414.573 375.573 418.733 371.399 435.201L405.247 433.817C405.247 433.817 406.174 418.746 384.614 414.573Z" fill="white"/>
        <path d="M368.234 419.514C368.3 419.514 368.365 419.497 368.422 419.464C368.479 419.431 368.527 419.383 368.56 419.326C370.904 415.225 373.848 415.184 373.921 415.184C374.02 415.184 374.116 415.144 374.186 415.074C374.256 415.004 374.296 414.909 374.296 414.809C374.296 414.71 374.256 414.615 374.186 414.545C374.116 414.474 374.02 414.435 373.921 414.435C373.784 414.435 370.479 414.435 367.897 418.952C367.872 418.994 367.857 419.042 367.85 419.091C367.844 419.139 367.848 419.189 367.861 419.236C367.874 419.284 367.896 419.328 367.927 419.367C367.957 419.406 367.994 419.439 368.037 419.463C368.097 419.498 368.165 419.515 368.234 419.514Z" fill="white"/>
        <path d="M364.172 417.349C364.238 417.349 364.303 417.332 364.36 417.299C364.417 417.266 364.465 417.219 364.498 417.161C366.846 413.058 369.741 413.027 369.863 413.021C369.962 413.021 370.058 412.982 370.128 412.911C370.198 412.841 370.238 412.746 370.238 412.646C370.238 412.547 370.198 412.452 370.128 412.382C370.058 412.311 369.962 412.272 369.863 412.272C369.724 412.272 366.419 412.272 363.839 416.789C363.806 416.846 363.789 416.91 363.789 416.976C363.788 417.042 363.806 417.106 363.839 417.163C363.871 417.22 363.919 417.267 363.976 417.3C364.032 417.333 364.097 417.351 364.163 417.351L364.172 417.349Z" fill="white"/>
        <path d="M360.035 414.778C360.101 414.778 360.166 414.761 360.223 414.728C360.281 414.695 360.328 414.647 360.361 414.59C362.724 410.461 365.691 410.45 365.724 410.45C365.824 410.451 365.92 410.413 365.991 410.343C366.062 410.274 366.102 410.179 366.104 410.08C366.105 409.981 366.067 409.885 365.997 409.814C365.928 409.743 365.833 409.702 365.734 409.701C365.597 409.701 362.292 409.701 359.709 414.219C359.685 414.262 359.669 414.309 359.663 414.358C359.657 414.407 359.661 414.457 359.674 414.504C359.687 414.552 359.709 414.596 359.739 414.635C359.769 414.674 359.807 414.706 359.85 414.731C359.907 414.762 359.97 414.778 360.035 414.778Z" fill="white"/>
        <path d="M179.189 417.678C179.46 417.999 179.741 418.311 180.032 418.615C180.645 419.271 181.29 419.896 181.966 420.487C187.133 424.982 194.666 428.12 205.292 429.334C238.681 433.139 277.092 380.961 277.092 380.961L317.071 417.665L348.009 394.852C348.009 394.852 316.595 356.036 308.979 345.566C301.363 335.096 299.305 329.697 287.646 333.748C285.024 334.658 279.127 336.987 271.563 340.047C249.577 348.955 213.502 364.07 202.82 368.547C200.852 369.373 199.749 369.839 199.749 369.839C199.749 369.839 199.12 369.366 198.052 368.716C197.743 368.528 197.393 368.326 197.017 368.117C191.309 364.933 178.327 360.085 174.286 378.66C173.874 380.557 173.509 382.448 173.208 384.321C171.148 397.139 171.96 409.195 179.189 417.678Z" fill="#0F1470"/>
        <path d="M319.706 416.128L283.938 384.753C283.002 383.871 282.041 382.942 281.603 381.736C281.228 380.693 281.279 379.549 281.337 378.44C281.534 374.748 281.73 371.055 281.925 367.364C280.066 371.169 278.205 374.977 276.342 378.787L262.835 361.907L271.12 383.268C270.163 383.669 269.088 383.68 268.123 383.3L268.509 385.371C259.925 395.255 250.208 404.285 239.022 411.079C227.837 417.873 215.11 422.412 202.032 423.008C191.841 423.472 185.106 423.418 177.972 416.128C185.181 425.137 190.387 429.902 201.091 434.208C206.292 436.291 211.794 437.72 217.384 437.954C232.281 438.579 246.067 430.888 259.423 424.259C272.779 417.63 288.022 411.749 302.277 416.128C308.292 417.974 313.67 421.558 319.706 423.328L319.706 416.128Z" fill="#060D47"/>
        <path d="M290.573 335.502L309.127 310.485L308.067 307.701L294.801 300.536L276.76 322.822L276.627 325.609L290.573 335.502Z" fill="#311113"/>
        <path d="M288.502 334.032L308.067 307.701L309.127 310.485L290.573 335.502L288.502 334.032Z" fill="#68272D"/>
        <path d="M279.678 322.557L286.998 327.068L289.363 328.528L290.921 326.384L293.033 323.476V323.472L296.056 319.317L303.82 308.628L294.801 303.588L292.077 307.008L290.163 309.407L287.43 312.836L284.043 317.081L279.678 322.557Z" fill="#FFD8D7"/>
        <path d="M290.163 309.407L293.033 323.472L296.056 319.317L292.077 307.008L290.163 309.407Z" fill="#FFECEB"/>
        <path d="M284.043 317.081L286.998 327.068L289.363 328.528L290.921 326.384L287.43 312.836L284.043 317.081Z" fill="#FFECEB"/>
        <path d="M267.889 327.686C267.889 327.686 270.584 319.545 272.009 317.484C273.434 315.422 275.026 315.278 277.723 312.731C280.419 310.184 281.213 309.233 281.842 310.819C282.472 312.405 281.524 316.073 278.511 318.047C275.498 320.021 281.683 323.512 280.414 326.849C279.144 330.186 273.11 336.051 273.11 336.051L267.889 327.686Z" fill="#F27D66"/>
        <path d="M169.846 377.796C169.897 379.253 170.09 380.332 170.479 380.94C171.284 382.145 172.197 383.273 173.208 384.311C176.406 387.682 182.009 392.088 189.848 393.952C190.121 394.014 190.399 394.077 190.674 394.139C191.878 394.395 193.096 394.582 194.322 394.701C196.842 394.937 199.381 394.9 201.893 394.592C220.296 392.367 238.384 373.015 238.384 373.015L240.743 364.251L243.773 353.015L272.013 341.907L271.563 340.034L270.872 337.137L268.206 326.036L240.352 326.972H240.105C240.105 326.972 244.108 288.583 230.616 281.601C217.123 274.62 207.517 269.783 207.517 269.783C207.517 269.783 191.708 276.36 185.123 287.238C184.434 288.367 183.854 289.558 183.389 290.796C183.314 291.002 183.238 291.206 183.17 291.412C183.091 291.652 183.011 291.895 182.932 292.139C178.567 305.527 174.269 326.313 173.333 342.206C172.541 355.592 169.599 370.897 169.846 377.796Z" fill="#B93B29"/>
        <path d="M226.005 273.695L233.309 280.676V287.339L230.62 281.63L227.359 291.44C227.359 291.44 217.088 276.491 215.342 275.727C213.597 274.963 207.522 269.809 207.522 269.809L212.054 264.822L226.005 273.695Z" fill="white"/>
        <path d="M225.434 221.867C224.47 219.448 225.788 216.586 227.919 215.04C230.05 213.493 232.788 213.019 235.44 212.877C238.092 212.734 240.766 212.877 243.367 212.366C244.228 212.197 245.298 211.924 245.899 212.553C250.842 217.742 245.865 219.669 247.097 220.296C248.329 220.924 249.769 220.983 251.14 221.197C253.644 221.586 256.163 222.613 257.711 224.579C259.26 226.545 259.543 229.579 257.88 231.455C257.389 232.017 256.719 232.519 256.65 233.251C256.567 234.154 257.429 234.834 257.846 235.641C258.077 236.104 258.167 236.625 258.106 237.14C258.045 237.654 257.835 238.139 257.502 238.536C257.153 238.942 256.666 239.264 256.489 239.766C256.337 240.201 256.453 240.676 256.429 241.135C256.365 242.446 255.159 243.467 253.876 243.837C252.593 244.208 251.226 244.087 249.889 244.077C246.279 244.057 242.724 244.882 239.215 245.704C236.335 246.379 233.436 247.058 230.724 248.227C227.887 249.452 225.294 251.195 222.384 252.248C219.474 253.3 216.017 253.558 213.432 251.89C212.005 250.967 210.998 249.558 210.017 248.184C207.957 245.287 205.884 242.339 204.706 239.008C203.528 235.676 203.341 231.841 205.017 228.708C205.646 227.59 206.426 226.564 207.335 225.66C209.848 223.053 213.013 220.967 216.569 220.116C219.398 219.447 222.357 219.569 225.121 220.469L225.434 221.867Z" fill="#714848"/>
        <path d="M236.417 232.774C236.758 231.057 238.039 229.422 239.771 229.158C242.513 228.742 244.856 231.721 247.62 231.476C250.054 231.259 251.483 228.761 252.925 226.794C254.468 224.688 256.749 222.796 259.357 222.903C261.695 222.998 263.792 224.836 264.401 227.094C265.009 229.352 264.213 231.877 262.569 233.543C261.859 234.263 261.002 234.854 260.429 235.678C258.492 238.487 260.653 242.448 259.64 245.708C258.803 248.41 255.876 250.027 253.052 250.218C250.228 250.409 247.464 249.469 244.79 248.543L237.041 237.935C236.492 236.268 236.075 234.491 236.417 232.774Z" fill="#512525"/>
        <path d="M235.887 237.045C234.357 236.345 232.436 236.439 231.106 237.47C230.556 237.895 230.127 238.454 229.625 238.935C227.161 241.296 222.861 241.369 220.311 239.107C222.264 240.03 224.824 239.414 226.14 237.701C226.93 236.673 227.281 235.356 228.097 234.349C229.419 232.716 231.962 232.231 233.794 233.261C235.625 234.291 236.436 236.341 237.507 238.176C237.037 237.708 236.489 237.326 235.887 237.045Z" fill="#512525"/>
        <path d="M221.284 241.01C223.878 241.699 226.796 241.572 229.054 240.113C230.2 239.377 231.114 238.345 232.213 237.528C233.312 236.712 234.681 236.105 236.005 236.418L238.095 239.682C236.698 239.789 236.163 241.491 235.474 242.714C234.526 244.416 232.745 245.555 230.856 246.027C228.966 246.498 226.97 246.366 225.05 245.985C220.26 245.034 215.438 242.072 214.136 237.371C216.361 238.89 218.691 240.322 221.284 241.01Z" fill="#512525"/>
        <path d="M215.494 258.072L210.625 267.663C210.625 267.663 219.668 270.847 223.951 275.916C228.234 280.985 229.824 281.628 229.824 281.628C229.859 279.655 229.992 277.685 230.225 275.725C230.434 273.826 230.758 271.56 231.253 269.09C245.056 275.753 246.129 260.088 247.243 259.292C253.621 261.476 248.7 254.811 249.814 252.146C250.771 249.847 251.49 242.894 251.67 241.01C251.676 240.963 251.671 240.915 251.655 240.87C251.64 240.826 251.615 240.785 251.581 240.752C251.548 240.718 251.508 240.692 251.463 240.677C251.418 240.661 251.371 240.656 251.324 240.661C250.852 240.723 249.91 240.648 248.224 239.772C245.532 238.377 244.736 239.744 240.985 236.725C237.234 233.706 238.867 236.568 236.445 237.201C234.024 237.834 232.204 232.918 228.872 238.791C225.541 244.663 221.638 244.817 221.638 244.817L221.524 245.064C218.174 242.47 213.833 242.255 211.339 244.755C208.573 247.521 209.12 252.547 212.558 255.991C213.411 256.847 214.404 257.551 215.494 258.072Z" fill="#FAC1B3"/>
        <path d="M235.083 249.311L236.773 252.909C236.813 252.994 236.776 253.096 236.691 253.136L236.218 253.358C236.133 253.398 236.031 253.361 235.991 253.276L234.301 249.678C234.261 249.592 234.298 249.491 234.383 249.451L234.856 249.229C234.941 249.189 235.043 249.225 235.083 249.311Z" fill="white"/>
        <path d="M231.577 249.622L233.267 253.22C233.307 253.305 233.27 253.407 233.185 253.447L232.712 253.669C232.627 253.709 232.525 253.672 232.485 253.587L230.795 249.989C230.755 249.903 230.792 249.802 230.877 249.762L231.35 249.54C231.435 249.5 231.537 249.536 231.577 249.622Z" fill="white"/>
        <path d="M227.894 249.267L229.083 251.8C229.123 251.885 229.087 251.986 229.002 252.026L228.529 252.248C228.444 252.288 228.342 252.252 228.302 252.167L227.113 249.634C227.073 249.549 227.109 249.447 227.195 249.407L227.667 249.185C227.753 249.145 227.854 249.182 227.894 249.267Z" fill="white"/>
        <path d="M219.013 253.09C219.248 252.506 219.313 251.867 219.2 251.248C219.092 250.615 218.842 250.014 218.47 249.491C218.28 249.236 218.066 249 217.829 248.787C217.715 248.678 217.593 248.577 217.466 248.484C217.335 248.394 217.204 248.307 217.073 248.223C216.942 248.139 216.804 248.066 216.661 248.006C216.52 247.94 216.378 247.879 216.238 247.819C215.945 247.724 215.647 247.647 215.344 247.59C215.58 247.798 215.826 247.965 216.06 248.141C216.172 248.238 216.284 248.332 216.397 248.422C216.512 248.508 216.623 248.601 216.726 248.701C216.829 248.798 216.934 248.888 217.039 248.987C217.144 249.086 217.226 249.191 217.329 249.292C217.429 249.388 217.522 249.492 217.605 249.603L217.863 249.929C218.182 250.381 218.44 250.873 218.631 251.392C218.829 251.94 218.957 252.51 219.013 253.09Z" fill="#F27D66"/>
        <path d="M213.927 250.939C214.376 250.809 214.792 250.699 215.202 250.616C215.6 250.534 216.005 250.491 216.412 250.487C216.61 250.487 216.807 250.508 217.005 250.517C217.205 250.545 217.402 250.584 217.597 250.633C217.699 250.653 217.8 250.679 217.899 250.712L218.202 250.811C218.308 250.842 218.411 250.88 218.511 250.925C218.616 250.967 218.723 251.006 218.839 251.042C218.776 250.943 218.707 250.849 218.633 250.759C218.563 250.663 218.483 250.575 218.395 250.497C218.308 250.42 218.216 250.346 218.12 250.272C218.075 250.232 218.025 250.199 217.972 250.173L217.814 250.085C217.6 249.969 217.372 249.88 217.136 249.819C216.422 249.659 215.674 249.744 215.013 250.06C214.583 250.258 214.21 250.56 213.927 250.939Z" fill="#F27D66"/>
        <path d="M242.813 262.888C243.163 262.891 243.513 262.871 243.861 262.828C243.934 262.817 244.004 262.791 244.068 262.753C244.131 262.715 244.186 262.664 244.23 262.605C244.273 262.545 244.305 262.478 244.322 262.406C244.34 262.334 244.343 262.26 244.332 262.187C244.321 262.114 244.296 262.044 244.257 261.98C244.219 261.917 244.169 261.862 244.109 261.818C244.049 261.775 243.982 261.743 243.91 261.725C243.838 261.708 243.764 261.705 243.691 261.716C242.794 261.818 241.886 261.778 241.002 261.596C239.129 261.204 237.751 260.223 236.934 258.678C236.902 258.61 236.856 258.548 236.799 258.498C236.742 258.448 236.676 258.409 236.604 258.385C236.532 258.362 236.456 258.352 236.38 258.359C236.305 258.365 236.231 258.386 236.164 258.422C236.097 258.457 236.038 258.506 235.99 258.565C235.942 258.624 235.907 258.692 235.886 258.765C235.865 258.838 235.86 258.914 235.869 258.989C235.879 259.065 235.903 259.137 235.942 259.203C237.657 262.448 241.08 262.888 242.813 262.888Z" fill="#E24949"/>
        <path d="M223.466 261.478C224.185 266.811 226.54 271.789 230.208 275.727C230.417 273.828 230.741 271.562 231.236 269.092C228.309 266.922 225.695 264.36 223.466 261.478Z" fill="#F27D66"/>
        <path d="M169.844 377.796C169.897 379.251 170.088 380.332 170.477 380.942C172.7 384.435 183.487 396.809 201.891 394.587C220.296 392.364 238.382 373.012 238.382 373.012L240.743 364.251L237.112 362.457C237.112 362.457 224.378 382.094 203.03 375.135C219.032 381.115 223.468 380.068 223.468 380.068C223.468 380.068 188.745 400.394 169.844 377.796Z" fill="#A13623"/>
        <path d="M233.303 351.517L269.477 340.332L270.871 337.148L268.206 326.049L240.354 326.985C237.811 338.596 233.503 350.723 233.303 351.517Z" fill="#A13623"/>
        <path d="M269.169 331.825C269.169 331.825 271.311 327.541 272.899 325.003C274.487 322.466 279.999 321.616 282.695 316.698C285.392 311.78 286.647 314.876 287.281 316.94C287.916 319.003 285.236 321.745 285.274 323.443C285.313 325.269 287.334 328.81 290.191 328.335C293.049 327.859 300.186 328.651 298.759 331.031C297.332 333.412 294.639 334.839 293.682 336.902C292.725 338.966 293.266 338.151 290.191 340.678C286.229 343.933 286.384 344.198 282.735 345.31C280.233 346.073 275.751 346.897 275.751 346.897L269.169 331.825Z" fill="#FAC1B3"/>
        <path d="M215.337 309.551L227.354 344.776L269.114 329.794L277.099 347.309C277.099 347.309 249.009 371.742 227.361 375.866C205.713 379.989 186.668 342.233 183.812 330.493L215.337 309.551Z" fill="#B93B29"/>
        <path d="M215.337 309.551L218.234 318.39L221.161 327.221L224.086 336.053L227.035 344.879L227.142 345.197L227.462 345.085L248.384 337.706L269.284 330.285L268.633 330.01L276.593 347.538L276.732 346.894C272.779 350.264 268.636 353.448 264.425 356.495C260.213 359.542 255.872 362.444 251.401 365.109C249.165 366.439 246.906 367.716 244.586 368.899C242.266 370.083 239.927 371.199 237.532 372.193C235.141 373.189 232.688 374.029 230.189 374.708L229.253 374.959L228.307 375.167L227.361 375.375C227.047 375.439 226.734 375.482 226.425 375.536C225.166 375.713 223.891 375.753 222.623 375.656C220.07 375.432 217.579 374.741 215.275 373.617C212.951 372.493 210.768 371.1 208.771 369.465C207.764 368.654 206.79 367.798 205.846 366.91C204.902 366.023 203.998 365.09 203.116 364.137C201.358 362.222 199.702 360.216 198.155 358.126C195.057 353.934 192.282 349.513 189.854 344.901C188.636 342.596 187.5 340.248 186.468 337.852C185.951 336.654 185.455 335.448 185.004 334.223C184.552 332.999 184.136 331.761 183.809 330.499C184.106 331.768 184.492 333.019 184.916 334.255C185.339 335.491 185.803 336.714 186.298 337.924C187.288 340.341 188.386 342.718 189.565 345.051C190.745 347.384 192 349.676 193.359 351.918C194.719 354.16 196.138 356.356 197.666 358.472C199.199 360.601 200.844 362.647 202.593 364.602C204.342 366.568 206.238 368.397 208.266 370.073C210.298 371.768 212.523 373.217 214.895 374.39C217.287 375.582 219.877 376.325 222.537 376.583C223.874 376.699 225.219 376.665 226.548 376.484C226.878 376.429 227.213 376.384 227.539 376.321L228.507 376.115L229.475 375.907L230.432 375.656C232.977 374.979 235.476 374.139 237.914 373.141C242.764 371.124 247.459 368.751 251.959 366.04C256.468 363.371 260.829 360.461 265.08 357.405C267.203 355.877 269.297 354.306 271.363 352.693C273.423 351.079 275.459 349.44 277.457 347.727L277.768 347.459L277.595 347.085L269.584 329.581L269.384 329.145L268.934 329.308L248.082 336.862L227.245 344.461L227.674 344.667L224.61 335.882L221.528 327.103L218.445 318.324L215.337 309.551Z" fill="#A13623"/>
        <g opacity="0.2">
        <path d="M169.846 377.796C169.897 379.253 170.09 380.332 170.479 380.94C171.284 382.145 172.197 383.273 173.208 384.311C171.148 397.131 171.96 409.19 179.189 417.671C179.46 417.992 179.741 418.304 180.032 418.607C184.505 414.014 187.703 408.334 189.311 402.128C189.987 399.506 190.369 396.819 190.674 394.12C191.2 389.504 191.505 384.845 192.693 380.358C193.801 376.171 195.665 372.201 197.017 368.096C197.544 366.523 197.965 364.916 198.275 363.287C199.275 357.776 198.556 352.111 197.663 346.583C194.657 327.975 189.72 309.731 182.932 292.146C178.567 305.534 174.269 326.321 173.333 342.214C172.541 355.592 169.599 370.897 169.846 377.796Z" fill="#42210B"/>
        </g>
        </g>
        <g filter="url(#filter1_d_2992_6806)">
        <path d="M124.61 235.269C129.868 226.974 139.363 229.747 145.72 233.53C152.076 237.313 156.559 245.373 160.17 253.862C161.097 256.043 161.996 258.32 162.321 260.944C162.917 265.758 161.508 271.018 159.729 275.632C157.95 280.247 155.757 284.63 154.513 289.535C153.733 292.619 153.341 295.869 152.269 298.806C150.696 303.12 147.837 306.254 144.927 308.603C141.344 311.502 137.533 313.525 133.657 314.585C132.225 314.974 130.639 315.343 129.587 316.985C128.803 318.211 128.498 319.884 128.261 321.466C127.797 324.561 127.685 328.413 129.471 329.667C126.855 329.931 124.127 329.992 121.921 328.326C119.716 326.66 118.218 322.756 119.143 318.958C116.569 321.285 113.563 321.859 110.74 321.748C101.936 321.392 93.9229 314.56 89.7063 303.814C90.7097 304.33 91.8064 304.499 92.9205 304.308C94.0345 304.118 95.1392 303.572 96.1583 302.709C94.2013 302.594 92.3511 301.788 90.7562 300.358C89.1613 298.927 87.8663 296.912 86.975 294.473C91.1138 295.442 95.5559 293.992 99.4171 290.411C101.092 288.844 102.681 286.784 103.506 284.147C104.263 281.721 104.301 279.057 104.244 276.552C104.121 270.834 103.627 265.169 104.083 259.373C104.539 253.578 106.56 248.128 109.269 243.465C116.412 231.185 124.61 235.269 124.61 235.269Z" fill="#CFBCA2"/>
        <g opacity="0.5">
        <path d="M137.041 335.022H176.799C177.229 335.022 177.577 335.399 177.577 335.864V338.063C177.577 338.528 177.229 338.906 176.799 338.906H137.041C136.612 338.906 136.264 338.528 136.264 338.063V335.864C136.264 335.399 136.612 335.022 137.041 335.022Z" fill="white"/>
        </g>
        <path d="M35.0001 443.702C35.0001 443.702 63.9752 447.419 73.6324 453.711C83.2896 460.003 96.9006 452.179 109.522 453.606C122.143 455.033 121.485 441.707 132.899 433.617C144.313 425.527 140.919 428.857 138.329 424.778C138.648 424.846 138.965 424.908 139.278 424.966C162.302 429.297 170.219 414.348 172.716 400.291C174.701 389.17 173.288 378.608 173.288 378.608C173.288 378.608 118.851 349.374 93.3303 334.662C67.8098 319.951 44.2203 352.707 43.7798 376.027C43.3394 399.348 35.0001 443.702 35.0001 443.702Z" fill="#95B9B1"/>
        <path d="M108.534 347.284L123.24 363.175C123.24 363.175 139.925 381.261 156.162 384.685C172.398 388.108 177.454 380.31 177.454 380.31C177.454 380.31 174.82 372.456 177.454 365.793C184.26 353.894 183.154 314.629 174.162 299.945C171.79 296.076 168.692 293.016 165.408 290.615C156.228 283.891 145.626 282.263 145.626 282.263C135.402 286.722 127.192 291.825 122.008 298.93C118.07 304.321 115.88 310.861 115.88 319.155C115.883 330.81 108.534 347.284 108.534 347.284Z" fill="#B9DCD4"/>
        <path d="M122.801 315.58C122.801 315.58 120.929 321.054 120.328 328.908C119.727 336.761 123.689 346.209 123.689 346.209L125.46 350.615L122.869 350.177L121.63 345.565C121.63 345.565 118.26 338.479 117.896 333.099C117.531 327.718 122.801 315.58 122.801 315.58Z" fill="#9DC7BD"/>
        <path d="M103.741 357.254L81.4105 337.623L81.7197 334.658L91.9366 324.415L113.18 341.529L113.937 344.196L103.741 357.254Z" fill="#CF6970"/>
        <path d="M105.254 355.316L81.7197 334.658L81.4105 337.623L103.741 357.254L105.254 355.316Z" fill="white"/>
        <path d="M85.727 334.501L93.3218 341.312L95.7573 343.499L99.6005 346.945L103.221 350.194L105.492 347.638L110.51 341.997L104.528 337.104L99.8717 333.293L95.7573 329.923L94.0387 328.516L92.6378 327.37L85.727 334.501Z" fill="#FFECEB"/>
        <path d="M99.6005 346.945L103.221 350.194L105.492 347.638L104.528 337.104L99.8717 333.293L99.6005 346.945Z" fill="#E1CDCF"/>
        <path d="M93.3217 341.312L95.7572 343.499V329.923L94.0386 328.516L93.3217 341.312Z" fill="#E1CDCF"/>
        <path d="M118.417 351.629C118.417 351.629 118.379 346.917 114.754 343.82C111.128 340.722 108.461 339.7 106.413 336.516C104.364 333.333 102.169 337.31 103.779 340.323C105.389 343.336 106.413 345.878 100.998 346.67C95.5828 347.462 94.9973 346.157 94.4135 348.872C93.8296 351.587 96.6071 351.906 96.6071 355.078C96.6071 358.25 99.9736 360.321 102.461 362.694C104.948 365.067 116.291 362.694 116.291 362.694L118.417 351.629Z" fill="#FFCFC3"/>
        <path d="M143.744 257.327L142.19 259.2C141.92 259.574 141.421 259.681 140.993 259.574C140.571 259.44 140.179 259.212 139.842 258.906C137.621 257.11 135.657 254.786 134.795 251.926C137.096 254.816 140.267 256.729 143.744 257.327Z" fill="#BAA383"/>
        <path d="M127.995 258.675C125.269 256.955 123.282 254.135 122.468 250.831C126.77 254.729 131.921 257.366 137.431 258.49L135.861 259.78C133.234 259.095 130.838 261.494 128.221 262.226C126.651 262.666 124.989 262.492 123.402 262.134C118.562 261.029 114.168 258.297 110.843 254.327C115.98 257.74 121.995 259.265 127.995 258.675Z" fill="#BAA383"/>
        <path d="M109.947 259.966L114.583 275.114C115.472 277.993 117.376 280.373 119.879 281.735C122.382 283.097 125.281 283.329 127.941 282.381L130.664 281.402C131.182 283.254 131.714 285.522 132.099 287.327C132.135 287.49 132.163 287.655 132.184 287.821C132.288 288.696 132.179 289.585 131.869 290.4C131.558 291.215 131.056 291.928 130.413 292.468L129.522 293.217C129.522 293.217 128.803 307.336 134.369 306.7C139.934 306.063 143.58 296.072 144.751 292.263C145.922 288.454 152.654 284.96 152.654 284.96C152.654 284.96 151.337 284.009 147.817 281.153C145.311 279.115 143.774 272.984 143.098 269.634C143.894 269.155 144.612 268.538 145.223 267.806C148.019 264.466 148.099 259.6 145.396 256.945C142.692 254.29 138.231 254.833 135.434 258.173C135.32 258.306 135.218 258.449 135.118 258.587L134.999 258.213C131.263 258.775 127.282 256.962 125.086 253.625C126.098 255.764 127.686 257.518 129.639 258.657C126.413 259.39 123.082 259.391 119.856 258.66C116.63 257.929 113.578 256.482 110.893 254.409C110.662 254.222 110.095 254.739 109.713 255.696C109.306 256.709 109.627 258.908 109.947 259.966Z" fill="#FFCFC4"/>
        <path d="M130.664 281.402C131.182 283.254 131.714 285.522 132.099 287.327C132.135 287.49 132.163 287.655 132.184 287.821C139.207 284.291 139.266 271.087 137.433 274.653C135.388 278.627 130.664 281.402 130.664 281.402Z" fill="#EFAF9F"/>
        <path d="M143.511 260.717C142.878 260.333 142.143 260.19 141.426 260.312C140.676 260.439 139.992 260.852 139.497 261.477C139.252 261.777 139.047 262.111 138.885 262.471C138.727 262.821 138.601 263.188 138.511 263.565C138.336 264.304 138.274 265.07 138.328 265.831C138.559 265.115 138.763 264.415 139.018 263.756C139.086 263.591 139.155 263.43 139.224 263.271C139.293 263.112 139.367 262.954 139.455 262.808C139.612 262.511 139.797 262.231 140.006 261.975C140.412 261.462 140.943 261.083 141.539 260.883C142.178 260.681 142.85 260.624 143.511 260.717Z" fill="#EFAF9F"/>
        <path d="M141.697 265.331C141.942 265.001 142.102 264.607 142.16 264.188C142.231 263.743 142.171 263.284 141.988 262.878C141.888 262.668 141.749 262.482 141.581 262.332C141.412 262.182 141.218 262.071 141.008 262.005C140.626 261.885 140.219 261.898 139.844 262.042C140.171 262.182 140.487 262.35 140.789 262.544C141.037 262.709 141.24 262.944 141.374 263.224C141.509 263.525 141.592 263.849 141.621 264.181C141.653 264.531 141.675 264.913 141.697 265.331Z" fill="#EFAF9F"/>
        <path d="M124.94 272.902C124.907 272.974 124.87 273.043 124.829 273.11C124.788 273.185 124.739 273.256 124.693 273.327C124.598 273.471 124.492 273.608 124.383 273.743C124.164 274.015 123.924 274.265 123.665 274.492C123.146 274.944 122.555 275.289 121.92 275.509C121.287 275.728 120.619 275.804 119.958 275.732C119.298 275.654 118.659 275.432 118.079 275.08C118.019 275.043 117.953 275.019 117.885 275.01C117.816 275.001 117.747 275.006 117.681 275.026C117.614 275.046 117.552 275.08 117.498 275.126C117.443 275.171 117.398 275.228 117.364 275.293C117.33 275.358 117.308 275.43 117.299 275.504C117.291 275.578 117.296 275.653 117.314 275.725C117.332 275.797 117.364 275.865 117.406 275.923C117.448 275.982 117.501 276.032 117.561 276.069C117.609 276.098 117.661 276.12 117.714 276.132H117.725C118.448 276.307 119.185 276.407 119.925 276.432C120.293 276.437 120.66 276.415 121.024 276.366C121.388 276.314 121.747 276.232 122.1 276.123C122.45 276.006 122.793 275.864 123.126 275.698C123.457 275.527 123.778 275.333 124.085 275.115C124.393 274.897 124.69 274.659 124.972 274.402C125.114 274.275 125.252 274.138 125.389 273.999C125.458 273.932 125.524 273.859 125.593 273.786C125.662 273.713 125.722 273.644 125.8 273.544L125.822 273.516C125.867 273.459 125.9 273.393 125.921 273.322C125.942 273.25 125.949 273.175 125.943 273.101C125.938 273.027 125.918 272.954 125.886 272.888C125.855 272.822 125.811 272.763 125.758 272.715C125.706 272.667 125.645 272.63 125.579 272.608C125.513 272.585 125.444 272.577 125.376 272.583C125.307 272.59 125.24 272.611 125.179 272.645C125.118 272.68 125.063 272.727 125.019 272.784C124.988 272.82 124.962 272.859 124.94 272.902Z" fill="#E24949"/>
        <path d="M133.062 263.863L136.115 266.066C136.187 266.118 136.207 266.224 136.159 266.302L135.891 266.737C135.843 266.815 135.746 266.836 135.674 266.784L132.621 264.581C132.549 264.529 132.529 264.423 132.577 264.345L132.844 263.91C132.892 263.832 132.99 263.81 133.062 263.863Z" fill="white"/>
        <path d="M130.444 265.945L133.497 268.148C133.569 268.2 133.589 268.306 133.541 268.384L133.274 268.819C133.225 268.897 133.128 268.918 133.056 268.866L130.003 266.663C129.931 266.611 129.911 266.505 129.959 266.427L130.226 265.992C130.274 265.914 130.372 265.892 130.444 265.945Z" fill="white"/>
        <path d="M127.37 267.549L129.518 269.099C129.59 269.151 129.61 269.257 129.561 269.335L129.294 269.77C129.246 269.849 129.149 269.87 129.076 269.818L126.928 268.267C126.856 268.215 126.836 268.109 126.885 268.031L127.152 267.596C127.2 267.518 127.297 267.497 127.37 267.549Z" fill="white"/>
        <path d="M118.802 384.241C121.529 399.804 128.69 414.047 139.278 424.964C162.302 429.295 170.218 414.346 172.716 400.29C166.765 405.39 159.38 408.124 151.795 408.038C146.307 407.975 140.954 406.439 136.197 403.612C134.45 402.574 135.401 399.836 137.373 399.344C139.149 398.902 138.885 396.586 137.138 396.04C130.225 393.881 123.904 389.832 118.802 384.241Z" fill="#87A9A1"/>
        <path d="M118.853 349.372C118.853 349.372 147.721 356.048 152.656 347.284C158.582 336.76 153.973 319.149 153.973 319.149L177.062 366.919C177.062 366.919 171.896 380.402 155.283 378.406C138.67 376.409 115.474 366.919 115.474 366.919L118.853 349.372Z" fill="#B9DCD4"/>
        <path d="M177.062 366.919C176.442 368.277 175.665 369.545 174.751 370.692C173.851 371.845 172.841 372.892 171.739 373.816C169.525 375.646 166.976 376.943 164.263 377.619C163.917 377.696 163.589 377.79 163.247 377.851L162.225 378.039L161.188 378.164C161.016 378.188 160.843 378.202 160.67 378.211L160.152 378.243C158.77 378.323 157.383 378.286 156.006 378.13C155.316 378.074 154.625 377.943 153.934 377.848C153.243 377.752 152.552 377.645 151.861 377.52L149.802 377.125C149.457 377.057 149.111 376.996 148.766 376.924L147.741 376.692L145.693 376.232C145.012 376.069 144.334 375.889 143.653 375.718L142.634 375.458L142.126 375.329L141.618 375.187L139.59 374.625C138.912 374.438 138.24 374.25 137.566 374.042L135.545 373.443L133.533 372.812C132.863 372.602 132.192 372.393 131.524 372.168C126.182 370.406 120.863 368.512 115.633 366.406L115.953 367.037L117.642 358.265L119.316 349.49L118.718 349.913C119.993 350.198 121.257 350.443 122.532 350.675C123.806 350.908 125.081 351.115 126.361 351.299C128.919 351.673 131.489 351.96 134.07 352.13C136.655 352.321 139.248 352.335 141.834 352.17C143.134 352.082 144.427 351.912 145.708 351.66C147.005 351.416 148.272 351.015 149.486 350.466C150.101 350.181 150.687 349.825 151.232 349.406C151.791 348.981 152.28 348.458 152.68 347.859C152.771 347.703 152.877 347.548 152.954 347.393L153.193 346.926L153.431 346.46L153.642 345.979C153.782 345.658 153.927 345.34 154.043 345.007L154.226 344.514L154.315 344.267L154.395 344.016C155.279 341.349 155.664 338.535 155.796 335.737C155.904 332.939 155.788 330.136 155.45 327.359C155.136 324.587 154.631 321.844 153.937 319.155C154.25 320.507 154.495 321.876 154.704 323.25C154.913 324.625 155.089 326.003 155.214 327.389C155.481 330.153 155.527 332.936 155.352 335.709C155.258 337.089 155.09 338.461 154.847 339.82C154.612 341.173 154.269 342.502 153.821 343.791L153.74 344.035L153.649 344.271L153.464 344.745C153.348 345.063 153.201 345.368 153.061 345.681L152.851 346.142L152.614 346.584L152.377 347.027C152.3 347.177 152.205 347.299 152.127 347.436C151.761 347.961 151.318 348.417 150.816 348.786C150.306 349.166 149.761 349.486 149.189 349.741C148.021 350.249 146.804 350.614 145.562 350.829C144.309 351.056 143.045 351.204 141.777 351.271C139.225 351.395 136.669 351.354 134.122 351.149C131.571 350.962 129.025 350.647 126.487 350.258C123.95 349.868 121.418 349.411 118.922 348.851L118.426 348.741L118.322 349.275L116.626 358.044L114.946 366.82L114.856 367.286L115.265 367.449C120.537 369.554 125.864 371.457 131.246 373.158C136.623 374.878 142.067 376.378 147.583 377.52L148.619 377.739C148.964 377.805 149.31 377.863 149.655 377.926L151.728 378.301C152.073 378.37 152.419 378.402 152.764 378.452L153.809 378.591C154.5 378.681 155.202 378.793 155.91 378.836C157.32 378.967 158.737 378.977 160.148 378.866L160.677 378.821C160.85 378.81 161.022 378.793 161.204 378.763L162.256 378.614L163.292 378.4C163.638 378.327 163.983 378.222 164.329 378.134C167.074 377.369 169.637 375.979 171.847 374.055C172.942 373.095 173.936 372.007 174.813 370.812C175.713 369.623 176.468 368.315 177.062 366.919Z" fill="#9DC7BD"/>
        </g>
        </g>
        <defs>
        <filter id="filter0_d_2992_6806" x="169.082" y="212.159" width="284.323" height="228.158" filterUnits="userSpaceOnUse" color-interpolation-filters="sRGB">
        <feFlood flood-opacity="0" result="BackgroundImageFix"/>
        <feColorMatrix in="SourceAlpha" type="matrix" values="0 0 0 0 0 0 0 0 0 0 0 0 0 0 0 0 0 0 127 0" result="hardAlpha"/>
        <feOffset dy="0.749064"/>
        <feGaussianBlur stdDeviation="0.374532"/>
        <feComposite in2="hardAlpha" operator="out"/>
        <feColorMatrix type="matrix" values="0 0 0 0 0 0 0 0 0 0 0 0 0 0 0 0 0 0 0.25 0"/>
        <feBlend mode="normal" in2="BackgroundImageFix" result="effect1_dropShadow_2992_6806"/>
        <feBlend mode="normal" in="SourceGraphic" in2="effect1_dropShadow_2992_6806" result="shape"/>
        </filter>
        <filter id="filter1_d_2992_6806" x="34.251" y="229.862" width="148.345" height="280.579" filterUnits="userSpaceOnUse" color-interpolation-filters="sRGB">
        <feFlood flood-opacity="0" result="BackgroundImageFix"/>
        <feColorMatrix in="SourceAlpha" type="matrix" values="0 0 0 0 0 0 0 0 0 0 0 0 0 0 0 0 0 0 127 0" result="hardAlpha"/>
        <feOffset dy="0.749064"/>
        <feGaussianBlur stdDeviation="0.374532"/>
        <feComposite in2="hardAlpha" operator="out"/>
        <feColorMatrix type="matrix" values="0 0 0 0 0 0 0 0 0 0 0 0 0 0 0 0 0 0 0.25 0"/>
        <feBlend mode="normal" in2="BackgroundImageFix" result="effect1_dropShadow_2992_6806"/>
        <feBlend mode="normal" in="SourceGraphic" in2="effect1_dropShadow_2992_6806" result="shape"/>
        </filter>
        <clipPath id="clip0_2992_6806">
        <rect width="375" height="424" fill="white" transform="translate(0 0.0280151)"/>
        </clipPath>
        </defs>
        </svg>