<svg width="135" height="274" viewBox="0 0 135 274" fill="none" xmlns="http://www.w3.org/2000/svg">
<g clip-path="url(#clip0_2969_7108)">
<rect width="135" height="274" rx="7.2" fill="#B9DCD4"/>
<g style="mix-blend-mode:overlay" clip-path="url(#clip1_2969_7108)">
<path d="M-10.9746 -2.73834L-10.9746 305.83L146.76 305.83L146.76 -2.73835L-10.9746 -2.73834Z" fill="#B8BABC"/>
<path d="M102.893 106.879L130.393 83.0252L129.821 24.3586L99.9855 27.6803L102.893 106.879Z" fill="#CDCFD0"/>
<path d="M10.0443 184.43L53.5014 193.035L56.2805 175.249L54.023 140.449L6.5469 146.844L10.0443 184.43Z" fill="#B8BABC"/>
<path d="M98.9936 238.48L98.9936 279.609L66.6104 279.609L66.9011 234.91L98.9936 238.48Z" fill="#B8BABC"/>
<path d="M99.9856 69.1628C99.0621 69.1628 66.9012 61.9178 66.9012 61.9178C66.9012 61.9178 61.8218 33.5654 62.5401 33.4607C63.2584 33.3561 99.122 27.8112 99.122 27.8112L99.9856 69.1628Z" fill="#B8BABC"/>
<path d="M17.6122 274.875C18.3903 274.797 44.1208 255.259 44.1208 255.259L40.1873 232.595L10.6002 232.595L10.2496 255.952L17.6122 274.875Z" fill="#CDCFD0"/>
<path d="M81.0703 137.441L81.0703 174.621L71.4075 174.621L71.4075 138.788L81.0703 137.441Z" fill="#CDCFD0"/>
<path d="M84.1402 136.408L85.1834 167.952L104.766 169.56L102.893 133.531L84.1402 136.408Z" fill="#B8BABC"/>
<path d="M47.832 10.0515L8.06909 14.4326L8.06909 -2.64688L47.0368 -2.73844L47.832 10.0515Z" fill="#E1E1E1"/>
<path d="M1.56146 80.0303L51.1069 72.916L48.9093 35.5661L6.65796 42.0788L1.56146 71.6605L1.56146 80.0303Z" fill="#CDCFD0"/>
<path d="M10.4203 251.675L9.89012 305.621L7.5471 305.568L8.05161 254.592L-10.9576 248.707L-10.4873 245.202L10.4203 251.675Z" fill="white"/>
<path d="M48.687 279.871L10.3607 306L10.1298 305.176L47.9944 279.361L39.905 232.7L40.4693 232.464L48.687 279.871Z" fill="white"/>
<path d="M66.3197 234.91L66.3197 305.582L67.4912 305.582L67.4912 234.91L66.3197 234.91Z" fill="white"/>
<path d="M98.7371 238.244L98.7371 305.582L99.3185 305.582L99.3185 238.244L98.7371 238.244Z" fill="white"/>
<path d="M144.819 241.723L135.558 305.869L133.275 305.098L141.946 245.006L48.157 234.687L9.14651 233.144L-10.8119 230.738L-10.6323 227.168L9.30043 229.561L48.2767 231.104L144.819 241.723Z" fill="white"/>
<path d="M11.8486 231.496L10.4034 253.323L8.06895 252.957L9.35162 233.667L4.89647 230.476L9.45424 201.745L-0.174385 72.4976L7.47036 27.4711L6.89743 -2.60766L9.24045 -2.71228L9.82193 27.8765L2.20284 72.7591L11.8315 201.967L7.62429 228.475L11.8486 231.496Z" fill="white"/>
<path d="M101.807 81.2466L101.499 84.7907L51.0898 74.7208L1.61272 82.4628L-10.9746 82.4628L-10.9661 78.8795L1.55286 78.8926L51.124 71.1114L101.807 81.2466Z" fill="white"/>
<path d="M108.742 239.997L106.399 240.219L98.0017 28.9619L59.7266 0.203965L60.7613 -3.00007L100.259 26.6602L100.302 27.7064L108.742 239.997Z" fill="white"/>
<path d="M104.304 134.224L6.59818 147.734L-10.7008 148.466L-10.735 146.674L6.52977 145.942L104.201 132.433L104.304 134.224Z" fill="white"/>
<path d="M146.136 162.577L104.424 178.205L57.2554 178.205L54.3908 195.781L9.6083 188.144L-10.9402 188.85L-11 185.28L9.71091 184.56L9.78787 184.574L52.6121 191.871L55.4255 174.621L104.142 174.621L145.581 159.098L146.136 162.577Z" fill="white"/>
<path d="M66.6103 176.413L66.6104 234.91L67.1918 234.91L67.1918 176.413L66.6103 176.413Z" fill="white"/>
<path d="M47.962 232.824L48.5316 233.003L53.7893 193.935L53.2197 193.756L47.962 232.824Z" fill="white"/>
<path d="M86.2952 176.505L84.2856 190.406L66.9011 190.406L66.9011 189.504L83.8153 189.504L85.7222 176.308L86.2952 176.505Z" fill="white"/>
<path d="M146.111 198.214L129.718 206.021L129.718 241.762L127.375 241.762L127.375 203.379L145.409 194.787L146.111 198.214Z" fill="white"/>
<path d="M130.684 83.2736L103.038 107.271L102.748 106.487L130.094 82.7636L129.265 -2.54228L129.855 -2.55537L130.684 83.2736Z" fill="white"/>
<path d="M130.394 41.3204L130.394 42.2097L146.188 42.2097L146.188 41.3204L130.394 41.3204Z" fill="white"/>
<path d="M129.846 24.8032L100.011 28.125L-10.9402 45.2437L-11 44.3544L99.96 27.2357L129.804 23.914L129.846 24.8032Z" fill="white"/>
<path d="M46.7346 -2.7183L56.0361 176.432L56.6243 176.36L47.3227 -2.78973L46.7346 -2.7183Z" fill="white"/>
<path d="M9.03343 13.5466L9.13818 15.3311L47.8902 10.0105L47.7854 8.22602L9.03343 13.5466Z" fill="white"/>
<path d="M30.8044 11.5097L35.0526 37.7625L35.617 37.5489L31.3689 11.2961L30.8044 11.5097Z" fill="white"/>
<path d="M32.7564 23.0508L15.5343 27.6934L14.6193 40.7972L14.0378 40.7057L14.9956 26.9348L32.6537 22.1746L32.7564 23.0508Z" fill="white"/>
<path d="M4.54044 111.761L4.6405 113.546L52.0965 107.324L51.9964 105.539L4.54044 111.761Z" fill="white"/>
<path d="M31.3823 76.5226L35.8447 108.371L36.4145 108.184L31.9521 76.3359L31.3823 76.5226Z" fill="white"/>
<path d="M130.328 83.9052L146.857 87.1659L147.007 85.389L130.477 82.1283L130.328 83.9052Z" fill="white"/>
<path d="M67.2005 233.196L106.724 237.46L103.936 178.205L86.0473 178.205L84.2857 190.406L67.2005 190.406L67.2005 233.196Z" fill="#CDCFD0"/>
</g>
<path d="M189.202 -43.0001C180.124 -24.4608 142.021 -0.428038 141.149 0.101453C141.149 0.101453 134.712 -46.3772 143.953 -65.1896C149.905 -77.335 164.939 -82.2556 177.418 -76.1295C179.799 -74.9698 181.988 -73.437 183.922 -71.5736C189.247 -66.4219 192.074 -59.2361 191.606 -52.0218C191.44 -48.9291 190.616 -45.839 189.202 -43.0001Z" fill="#FC8574"/>
<path d="M-7.10248 -55.6534C1.26446 -36.7826 -4.81766 7.85401 -4.97246 8.86223C-4.97246 8.86223 -44.7148 -16.0826 -53.1859 -35.2541C-58.664 -47.6204 -52.7699 -62.2999 -40.056 -67.9211C-37.6367 -69.0002 -35.0559 -69.6913 -32.3849 -69.9754C-25.0154 -70.7434 -17.694 -68.2897 -12.4681 -63.2941C-10.206 -61.1787 -8.36813 -58.5616 -7.10248 -55.6534Z" fill="#FC8574"/>
<g filter="url(#filter2_d_2969_7108)">
<path d="M65.8786 155.974C65.8114 159.512 61.6325 166.007 61.5354 166.152C61.5354 166.152 57.168 159.397 57.2408 155.805C57.2856 153.487 59.2649 151.633 61.6475 151.681C62.1015 151.688 62.5526 151.768 62.9881 151.917C64.1887 152.332 65.1485 153.244 65.5985 154.398C65.7967 154.891 65.8926 155.431 65.8786 155.974Z" fill="#FC8574"/>
</g>
<rect x="58.2129" y="152.869" width="6.6957" height="6.6957" rx="3.34785" stroke="white" stroke-width="0.21599"/>
<rect x="60.2638" y="154.921" width="2.59188" height="2.59188" rx="1.29594" fill="white"/>
<g filter="url(#filter3_d_2969_7108)">
<path d="M108.719 102.334C108.651 105.872 104.473 112.367 104.375 112.512C104.375 112.512 100.008 105.757 100.081 102.165C100.126 99.8468 102.105 97.9932 104.487 98.0409C104.942 98.0485 105.393 98.1281 105.828 98.2775C107.029 98.6921 107.989 99.6037 108.439 100.758C108.637 101.251 108.733 101.791 108.719 102.334Z" fill="#FC8574"/>
</g>
<rect x="101.053" y="99.2288" width="6.6957" height="6.6957" rx="3.34785" stroke="white" stroke-width="0.21599"/>
<rect x="103.104" y="101.281" width="2.59188" height="2.59188" rx="1.29594" fill="white"/>
<g filter="url(#filter4_d_2969_7108)">
<path d="M44.6387 56.2943C44.5714 59.8324 40.3926 66.3268 40.2955 66.4723C40.2955 66.4723 35.9281 59.7174 36.0009 56.125C36.0457 53.8068 38.025 51.9531 40.4075 52.0009C40.8616 52.0085 41.3126 52.0881 41.7482 52.2375C42.9488 52.6521 43.9086 53.5637 44.3586 54.7185C44.5568 55.211 44.6527 55.7508 44.6387 56.2943Z" fill="#FC8574"/>
</g>
<rect x="36.973" y="53.1888" width="6.6957" height="6.6957" rx="3.34785" stroke="white" stroke-width="0.21599"/>
<rect x="39.0239" y="55.2408" width="2.59188" height="2.59188" rx="1.29594" fill="white"/>
<g filter="url(#filter5_d_2969_7108)">
<path d="M23.3986 209.254C23.3314 212.792 19.1526 219.287 19.0555 219.432C19.0555 219.432 14.6881 212.677 14.7609 209.085C14.8057 206.767 16.7849 204.913 19.1675 204.961C19.6216 204.968 20.0726 205.048 20.5082 205.197C21.7088 205.612 22.6685 206.524 23.1185 207.678C23.3167 208.171 23.4127 208.711 23.3986 209.254Z" fill="#FC8574"/>
</g>
<rect x="15.733" y="206.149" width="6.6957" height="6.6957" rx="3.34785" stroke="white" stroke-width="0.21599"/>
<rect x="17.7838" y="208.201" width="2.59188" height="2.59188" rx="1.29594" fill="white"/>
<g filter="url(#filter6_d_2969_7108)">
<path d="M105.119 257.494C105.051 261.032 100.873 267.527 100.775 267.672C100.775 267.672 96.4081 260.917 96.4809 257.325C96.5257 255.007 98.5049 253.153 100.888 253.201C101.342 253.208 101.793 253.288 102.228 253.437C103.429 253.852 104.389 254.764 104.839 255.918C105.037 256.411 105.133 256.951 105.119 257.494Z" fill="#FC8574"/>
</g>
<rect x="97.453" y="254.389" width="6.6957" height="6.6957" rx="3.34785" stroke="white" stroke-width="0.21599"/>
<rect x="99.5038" y="256.441" width="2.59188" height="2.59188" rx="1.29594" fill="white"/>
</g>
<defs>
<filter id="filter2_d_2969_7108" x="56.8079" y="151.68" width="9.50398" height="15.5522" filterUnits="userSpaceOnUse" color-interpolation-filters="sRGB">
<feFlood flood-opacity="0" result="BackgroundImageFix"/>
<feColorMatrix in="SourceAlpha" type="matrix" values="0 0 0 0 0 0 0 0 0 0 0 0 0 0 0 0 0 0 127 0" result="hardAlpha"/>
<feOffset dy="0.647971"/>
<feGaussianBlur stdDeviation="0.21599"/>
<feColorMatrix type="matrix" values="0 0 0 0 0 0 0 0 0 0 0 0 0 0 0 0 0 0 0.15 0"/>
<feBlend mode="normal" in2="BackgroundImageFix" result="effect1_dropShadow_2969_7108"/>
<feBlend mode="normal" in="SourceGraphic" in2="effect1_dropShadow_2969_7108" result="shape"/>
</filter>
<filter id="filter3_d_2969_7108" x="99.648" y="98.04" width="9.50398" height="15.5522" filterUnits="userSpaceOnUse" color-interpolation-filters="sRGB">
<feFlood flood-opacity="0" result="BackgroundImageFix"/>
<feColorMatrix in="SourceAlpha" type="matrix" values="0 0 0 0 0 0 0 0 0 0 0 0 0 0 0 0 0 0 127 0" result="hardAlpha"/>
<feOffset dy="0.647971"/>
<feGaussianBlur stdDeviation="0.21599"/>
<feColorMatrix type="matrix" values="0 0 0 0 0 0 0 0 0 0 0 0 0 0 0 0 0 0 0.15 0"/>
<feBlend mode="normal" in2="BackgroundImageFix" result="effect1_dropShadow_2969_7108"/>
<feBlend mode="normal" in="SourceGraphic" in2="effect1_dropShadow_2969_7108" result="shape"/>
</filter>
<filter id="filter4_d_2969_7108" x="35.568" y="52" width="9.50398" height="15.5522" filterUnits="userSpaceOnUse" color-interpolation-filters="sRGB">
<feFlood flood-opacity="0" result="BackgroundImageFix"/>
<feColorMatrix in="SourceAlpha" type="matrix" values="0 0 0 0 0 0 0 0 0 0 0 0 0 0 0 0 0 0 127 0" result="hardAlpha"/>
<feOffset dy="0.647971"/>
<feGaussianBlur stdDeviation="0.21599"/>
<feColorMatrix type="matrix" values="0 0 0 0 0 0 0 0 0 0 0 0 0 0 0 0 0 0 0.15 0"/>
<feBlend mode="normal" in2="BackgroundImageFix" result="effect1_dropShadow_2969_7108"/>
<feBlend mode="normal" in="SourceGraphic" in2="effect1_dropShadow_2969_7108" result="shape"/>
</filter>
<filter id="filter5_d_2969_7108" x="14.328" y="204.96" width="9.50398" height="15.5522" filterUnits="userSpaceOnUse" color-interpolation-filters="sRGB">
<feFlood flood-opacity="0" result="BackgroundImageFix"/>
<feColorMatrix in="SourceAlpha" type="matrix" values="0 0 0 0 0 0 0 0 0 0 0 0 0 0 0 0 0 0 127 0" result="hardAlpha"/>
<feOffset dy="0.647971"/>
<feGaussianBlur stdDeviation="0.21599"/>
<feColorMatrix type="matrix" values="0 0 0 0 0 0 0 0 0 0 0 0 0 0 0 0 0 0 0.15 0"/>
<feBlend mode="normal" in2="BackgroundImageFix" result="effect1_dropShadow_2969_7108"/>
<feBlend mode="normal" in="SourceGraphic" in2="effect1_dropShadow_2969_7108" result="shape"/>
</filter>
<filter id="filter6_d_2969_7108" x="96.048" y="253.2" width="9.50398" height="15.5522" filterUnits="userSpaceOnUse" color-interpolation-filters="sRGB">
<feFlood flood-opacity="0" result="BackgroundImageFix"/>
<feColorMatrix in="SourceAlpha" type="matrix" values="0 0 0 0 0 0 0 0 0 0 0 0 0 0 0 0 0 0 127 0" result="hardAlpha"/>
<feOffset dy="0.647971"/>
<feGaussianBlur stdDeviation="0.21599"/>
<feColorMatrix type="matrix" values="0 0 0 0 0 0 0 0 0 0 0 0 0 0 0 0 0 0 0.15 0"/>
<feBlend mode="normal" in2="BackgroundImageFix" result="effect1_dropShadow_2969_7108"/>
<feBlend mode="normal" in="SourceGraphic" in2="effect1_dropShadow_2969_7108" result="shape"/>
</filter>
<clipPath id="clip0_2969_7108">
<rect width="135" height="274" rx="7.2" fill="white"/>
</clipPath>
<clipPath id="clip1_2969_7108">
<rect width="309" height="158" fill="white" transform="translate(-11 306) rotate(-90)"/>
</clipPath>
</defs>
</svg>
